<svg width="181" height="444" viewBox="0 0 181 444" fill="none" xmlns="http://www.w3.org/2000/svg">
<g clip-path="url(#clip0_1281_24499)">
<path d="M137.89 163C133.74 169 130.3 176.89 133.48 183.51C132.544 183.977 131.503 184.191 130.46 184.131C129.416 184.071 128.406 183.74 127.53 183.17C126.112 190.304 127.346 197.711 131 204C123.92 200.9 116.38 208.92 108.71 208C102.65 207.3 98.5799 201.13 97.5399 195.13C96.4999 189.13 97.6099 182.96 97.3999 176.86C96.5999 154.18 78.0699 136.16 71.7599 114.36C65.5899 93.0901 71.5499 70.3601 70.4099 48.2301C69.9277 38.8872 70.2388 29.5203 71.3399 20.2301C72.3899 11.0001 80.4999 2.10006 89.7099 0.550062C100.77 -1.30994 108.29 1.34006 114.35 11.5501C120.41 21.7601 120.51 32.9301 120.89 44.7801C121 48.4501 121.1 52.1901 122.19 55.7001C123.37 59.4901 125.63 62.8401 127.71 66.2101C144.78 93.8501 157.46 134.46 137.89 163Z" fill="#604C9A"/>
<path d="M110.85 32.5701C110.85 32.5701 108.85 32.1901 108.33 31.0801L110.85 32.5701Z" fill="#F9DDCA"/>
<path d="M110.85 32.5701C110.85 32.5701 108.85 32.1901 108.33 31.0801" stroke="black" stroke-linecap="round" stroke-linejoin="round"/>
<path d="M91.4399 11.5199C91.4399 11.5199 92.4399 9.96992 95.9399 9.82992C95.9399 9.82992 93.2699 8.82992 92.3299 8.98992C92.7795 8.57616 93.3179 8.27089 93.9038 8.09754C94.4898 7.9242 95.1076 7.88738 95.7099 7.98992C95.7099 7.98992 95.3299 6.66992 94.2099 6.48992C94.4544 6.13893 94.7674 5.84104 95.13 5.61418C95.4926 5.38733 95.8974 5.23621 96.3199 5.16992" stroke="black" stroke-linecap="round" stroke-linejoin="round"/>
<path d="M103.74 58.2605C101.876 59.6035 99.7079 60.4626 97.43 60.7605C95.3731 60.6944 93.3516 60.2077 91.49 59.3305C89.685 58.5291 87.9462 57.5862 86.29 56.5105C85.7696 56.2546 85.2936 55.917 84.88 55.5105C84.5537 55.1185 84.2813 54.6847 84.07 54.2205C82.3001 50.5207 81.1224 46.5658 80.58 42.5005C79.96 38.3205 79.2 33.8305 81.3 29.9205C82.3703 27.829 84.0236 26.0923 86.06 24.9205C87.97 23.7305 89.73 22.8705 90.31 20.6105C90.5102 19.4586 90.6504 18.297 90.73 17.1305C90.8781 16.1995 91.147 15.2919 91.53 14.4305C91.68 14.0805 92.29 13.5205 92.63 13.6705C92.7263 15.2062 92.6323 16.7479 92.35 18.2605C92.29 18.8205 91.79 20.4805 92 21.0005C92.38 21.9505 95.39 22.0505 96.29 22.2005C98.1892 22.383 100.034 22.9369 101.72 23.8305C102.691 24.2598 103.594 24.8292 104.4 25.5205C105.28 26.3805 106.03 27.4405 106.83 28.3705C107.355 29.0696 107.776 29.8409 108.08 30.6605C108.856 32.6965 109.348 34.83 109.54 37.0005C110.18 41.5905 110.41 46.7305 109.01 51.2405C108.354 53.4731 107.074 55.4717 105.32 57.0005C104.83 57.4505 104.3 57.8705 103.74 58.2605Z" fill="#F9DDCA" stroke="black" stroke-linecap="round" stroke-linejoin="round"/>
<path d="M87.6175 40.1635C87.597 40.0103 87.4562 39.9026 87.3029 39.923C87.1497 39.9434 87.0419 40.0842 87.0624 40.2375L87.5458 43.8654C87.5662 44.0187 87.707 44.1264 87.8603 44.106C88.0136 44.0856 88.1213 43.9448 88.1009 43.7915L87.6175 40.1635Z" stroke="black" stroke-linecap="round" stroke-linejoin="round"/>
<path d="M100.806 37.7817C100.786 37.6284 100.645 37.5207 100.492 37.5411C100.338 37.5616 100.231 37.7024 100.251 37.8557L100.735 41.4836C100.755 41.6369 100.896 41.7446 101.049 41.7242C101.202 41.7037 101.31 41.5629 101.29 41.4096L100.806 37.7817Z" stroke="black" stroke-linecap="round" stroke-linejoin="round"/>
<path d="M89.0001 36.6399C87.5794 36.4786 86.1409 36.6674 84.8101 37.1899" stroke="black" stroke-linecap="round" stroke-linejoin="round"/>
<path d="M96.8901 35.1803C96.8901 35.1803 98.8901 33.7403 102.72 34.1803" stroke="black" stroke-linecap="round" stroke-linejoin="round"/>
<path d="M93.1802 38.8701L94.5802 47.1001" stroke="black" stroke-linecap="round" stroke-linejoin="round"/>
<path d="M81.32 51.2603C81.32 51.2603 77.19 51.4503 75.88 48.0803C74.57 44.7103 70.82 34.3903 74.75 35.5103C77.16 36.1703 76.75 36.8303 77.94 37.1103C77.94 37.1103 78.88 46.0103 79.82 47.7903C80.3976 48.9119 80.8987 50.0712 81.32 51.2603Z" fill="#F9DDCA" stroke="black" stroke-linecap="round" stroke-linejoin="round"/>
<path d="M75.55 38.4004C75.55 38.4004 76.55 38.4904 77.16 41.6204" stroke="black" stroke-linecap="round" stroke-linejoin="round"/>
<path d="M112.4 45.0809C112.4 45.0809 111.82 42.2909 111.64 40.4809C111.44 38.3509 110.57 32.7909 110.57 32.7909C111.234 32.2813 111.838 31.6975 112.37 31.0509C113.1 30.1309 115.73 30.3109 115.72 34.5809C115.71 38.8509 115.46 41.4909 114.34 42.9709C113.22 44.4509 113.27 45.1509 112.4 45.0809Z" fill="#F9DDCA" stroke="black" stroke-linecap="round" stroke-linejoin="round"/>
<path d="M113.55 33.3809C113.55 33.3809 112.31 33.8609 112.88 37.4709" stroke="black" stroke-linecap="round" stroke-linejoin="round"/>
<path d="M130.19 124.71C131.727 121.877 133.015 118.916 134.04 115.86C134.51 114.28 135.39 109.77 136.24 109.86C137.37 110.05 138.43 115.86 138.43 115.86C138.43 115.86 141.76 129.48 142.09 133.2C142.51 137.98 141.25 145.99 141.39 148.81C141.53 151.63 140.27 153.17 139.57 159.81C138.87 166.45 145.08 204.11 145.43 206.92C145.78 209.73 144.59 217.61 144.66 219.65C144.73 221.69 146.35 221.97 144.88 225.2C143.41 228.43 142.28 239.31 143.03 240.32C143.78 241.33 143.5 245.88 143.97 247.32C144.44 248.76 140.79 253.6 140.04 256.04C139.29 258.48 141.82 259.98 142.57 258.29C143.32 256.6 149.32 253.88 149.51 253.04C149.7 252.2 153.91 247.6 154.1 245.72C154.29 243.84 155.6 243.28 155.03 240.35C154.46 237.42 153 221.08 153 221.08C151.87 214.33 158 163.14 156.4 154.14C154.8 145.14 155.32 104.14 154.19 95.1399C153.06 86.1399 153.91 76.4999 141.11 76.4999C127.54 76.4999 115.82 74.0099 109.5 73.2299C109.145 72.8518 108.811 72.4545 108.5 72.0399C105.68 68.3899 108.5 52.9199 108.5 52.9199C108.5 52.9199 103 60.5099 98 60.3699C93 60.2299 86.09 56.4899 86.09 56.4899C88.72 58.3599 89.85 64.7399 91.35 71.4899C91.95 74.1799 91.04 75.6299 89.61 76.4899L81.41 76.7199L71 79.0999C66.23 79.7399 61.69 80.8099 59 82.3599C54.62 84.8899 52.16 104.17 50.94 113.09C49.72 122.01 41.58 143.5 37.53 148.75C33.48 154 28.08 167.94 27 173.47C25.92 179 9.70003 210.74 8.61003 213.13C7.52003 215.52 8.26003 218.06 8.00003 220C7.74003 221.94 2.61003 227.7 1.10003 231C-0.409967 234.3 1.10003 234.49 3.50003 239.28C5.90003 244.07 4.23003 244.52 5.29003 245.97C6.35003 247.42 7.29003 247.57 9.38003 251.6C9.55422 251.924 9.82843 252.184 10.1619 252.34C10.4954 252.496 10.8703 252.54 11.2309 252.466C11.5915 252.392 11.9186 252.203 12.1635 251.928C12.4083 251.653 12.5579 251.307 12.59 250.94C12.79 248.833 13.0067 246.76 13.24 244.72C13.45 242.8 15.38 242.51 15.85 240.83C17.08 236.43 17.32 231.22 18.1 227.47C18.88 223.72 17.63 219.31 18.58 217.13C22.6241 207.638 27.1911 198.377 32.26 189.39C32.91 188.16 34.49 185.52 35.18 184.3C36.4099 182.268 37.8152 180.347 39.38 178.56C47.76 168.77 53.68 158.32 56.96 141.18C57.87 136.41 59.18 134.18 60.71 130.75C60.83 130.46 62.39 127.14 62.59 126.58L63.8 123.66L65.21 130.12C67.21 141.71 69.76 142.37 70.58 146.73C72.22 155.46 54.77 174.06 53.13 177.13C52.54 178.24 51.13 184.9 48.92 187.43C80.46 220.07 123.13 188.6 123.2 188.56C118.66 178.69 112.4 172.56 110 165.77C109 162.87 111.41 153.25 116.52 146.71C120.148 142.031 123.462 137.117 126.44 132L130.19 124.71ZM10.82 243.36L10 244.48L8.87003 242.09V235.2L9.87003 233.65C11.294 236.681 11.6295 240.11 10.82 243.36Z" fill="#F9DDCA" stroke="black" stroke-linecap="round" stroke-linejoin="round"/>
<path d="M47.1501 148.999C47.1501 148.999 45.6901 143.859 47.2801 140.729" stroke="black" stroke-width="0.5" stroke-linecap="round" stroke-linejoin="round"/>
<path d="M145.68 152.86C147.417 151.267 148.681 149.226 149.33 146.96" stroke="black" stroke-width="0.5" stroke-linecap="round" stroke-linejoin="round"/>
<g opacity="0.5">
<path d="M66.3421 93.3074C67.1782 88.0103 65.5387 83.3504 62.6801 82.8992C59.8216 82.4479 56.8264 86.3763 55.9903 91.6734C55.1541 96.9705 56.7937 101.63 59.6522 102.082C62.5108 102.533 65.506 98.6045 66.3421 93.3074Z" fill="#F6BAD6"/>
</g>
<g opacity="0.5">
<path d="M144.383 105.573C149.333 105.066 152.728 98.6245 151.966 91.1855C151.203 83.7466 146.573 78.1272 141.622 78.6344C136.672 79.1416 133.277 85.5832 134.039 93.0222C134.802 100.461 139.432 106.081 144.383 105.573Z" fill="#F6BAD6"/>
</g>
<path d="M59.535 87.112C59.8047 86.3287 59.8837 85.6456 59.7113 85.5863C59.539 85.527 59.1807 86.1139 58.911 86.8972C58.6413 87.6804 58.5623 88.3635 58.7346 88.4229C58.907 88.4822 59.2653 87.8953 59.535 87.112Z" fill="#FBFBFB"/>
<path d="M148.918 88.2127C149.231 88.1451 149.303 87.25 149.079 86.2135C148.855 85.1771 148.419 84.3918 148.106 84.4595C147.793 84.5272 147.721 85.4222 147.945 86.4587C148.169 87.4951 148.605 88.2804 148.918 88.2127Z" fill="#FBFBFB"/>
<path d="M125.61 80.1504C121.91 81.4904 111.32 83.1504 107.46 82.9704C103.6 82.7904 103.07 85.9704 101.38 86.3504" stroke="black" stroke-width="0.5" stroke-linecap="round" stroke-linejoin="round"/>
<path d="M72.22 81.4902C72.55 82.6202 86.04 85.2702 91.3 84.5502C93.68 84.7402 92.81 85.8702 94.46 86.4302" stroke="black" stroke-width="0.5" stroke-linecap="round" stroke-linejoin="round"/>
<path d="M103.63 79.0402L107.46 54.9902" stroke="black" stroke-width="0.5" stroke-linecap="round" stroke-linejoin="round"/>
<path d="M83.3301 181.42C83.7624 180.96 84.0695 180.396 84.2218 179.783C84.3741 179.171 84.3666 178.529 84.2001 177.92" stroke="black" stroke-width="0.5" stroke-linecap="round" stroke-linejoin="round"/>
<path d="M90.6001 121.3C90.6001 121.3 83.0001 105.46 68.3201 100.77C68.3201 100.77 58.4801 110.99 62.4801 121.3C64.8001 127.29 76.1001 134.52 90.6001 121.3Z" fill="#17191B" stroke="black" stroke-linecap="round" stroke-linejoin="round"/>
<path d="M124.05 116.8C123.617 112.628 122.37 108.581 120.38 104.89C103.38 106.02 90.6001 121.45 90.6001 121.45C102.15 138.74 115.83 134.76 120.6 129.29C122.638 129.908 124.641 130.636 126.6 131.47C127.3 129.71 128.6 127.24 129.94 124.68C125.86 122.63 124.05 116.8 124.05 116.8Z" fill="#17191B" stroke="black" stroke-linecap="round" stroke-linejoin="round"/>
<path d="M68.3201 100.77C71.0623 91.9597 75.5213 83.7792 81.4401 76.7002" stroke="black" stroke-linecap="round" stroke-linejoin="round"/>
<path d="M120.38 104.89C120.38 104.89 123.82 88 123 75.21" stroke="black" stroke-linecap="round" stroke-linejoin="round"/>
<path d="M123.25 188.58C123.19 188.58 80.52 220.09 48.97 187.45C47.86 188.75 46.77 190.05 45.9 191.21L45.23 192.14L78.17 223.95L84 225.22L125.62 194.7L123.25 188.58Z" fill="#17191B" stroke="black" stroke-linecap="round" stroke-linejoin="round"/>
<path d="M45.47 375.39C49.05 389.64 53.47 405.66 52.94 409.01C52.1 414.63 51.54 416.32 54.35 420.82C57.16 425.32 48.73 431 46.49 437.13C44.25 443.26 58.58 443.32 65.62 443.31C72.66 443.3 67.02 435.44 65.33 428.41C63.64 421.38 69.82 423.06 66.16 413.22C63.29 405.5 64.74 386.89 65.76 373.79C65.76 373.79 58.1 380.29 45.47 375.39Z" fill="#FBFBFB" stroke="black" stroke-linecap="round" stroke-linejoin="round"/>
<path d="M42.84 197C41.5 201.5 40.3 202.06 35.84 219.5C34.04 226.5 34.92 246.13 35.99 262.02C37.6 285.8 40.86 311.24 41.11 313.43C41.53 317.08 40.11 320.43 41.11 324.82C42.11 329.21 41.4 344.65 41.11 353.37C41 356.89 43.06 365.75 45.48 375.43C58.11 380.33 65.78 373.83 65.78 373.83C66.06 370.22 66.31 367.03 66.43 364.6C66.99 353.35 61.36 337.04 61.35 330.29C61.34 323.54 65.85 319.6 64.71 305.54C63.57 291.48 72.92 261.47 71.91 232.62C71.7506 230.669 72.2938 228.725 73.4417 227.138C74.5896 225.552 76.2665 224.429 78.1699 223.97L45.22 192.12C44.2522 193.656 43.4541 195.292 42.84 197Z" fill="#F9DDCA" stroke="black" stroke-linecap="round" stroke-linejoin="round"/>
<g opacity="0.5">
<path d="M58.7917 321.825C62.1007 320.521 63.1941 315.432 61.2339 310.458C59.2737 305.484 55.0021 302.509 51.6931 303.813C48.3841 305.118 47.2907 310.207 49.251 315.181C51.2112 320.154 55.4827 323.129 58.7917 321.825Z" fill="#F7C1DB"/>
</g>
<path d="M51.5699 322.22C51.5699 322.22 46.4999 315.1 45.9399 311.16" stroke="black" stroke-width="0.5" stroke-linecap="round" stroke-linejoin="round"/>
<path d="M51.9668 310.484C52.3477 309.359 52.4105 308.364 52.1072 308.262C51.8038 308.159 51.249 308.987 50.8681 310.112C50.4872 311.237 50.4244 312.232 50.7278 312.334C51.0312 312.437 51.5859 311.609 51.9668 310.484Z" fill="#FBFBFB"/>
<path d="M77.1199 223.93C77.1199 223.93 70.9999 220 68.9299 219.46L77.1199 223.93Z" fill="#F9DDCA"/>
<path d="M77.1199 223.93C77.1199 223.93 70.9999 220 68.9299 219.46" stroke="black" stroke-linecap="round" stroke-linejoin="round"/>
<path d="M157.42 420.63C157.98 424.56 159.07 429.58 158.32 433.33C157.57 437.08 155.32 433.33 155.32 438.95C155.32 444.57 170.7 443.07 177.45 441.19C184.2 439.31 175.19 423.19 172.94 419.82C170.69 416.45 175.07 413.33 171.32 406.95C168.05 401.41 162.6 385.17 159.99 363.75C149.33 369.3 143.59 367.4 143.59 367.4C148.06 375.18 153.28 384.91 158.75 403.59C160.73 410.35 156.86 416.69 157.42 420.63Z" fill="#FBFBFB" stroke="black" stroke-linecap="round" stroke-linejoin="round"/>
<path d="M159 353.83C157.11 327.58 151 313.58 147.39 308.9C143.78 304.22 139.47 290.27 139.47 290.27C138.32 248.65 128.18 217.72 128.18 217.72C128.89 204.93 126.51 195.78 123.18 188.58L125.56 194.7L84 225.22C87.23 227.96 87.72 226.36 89.22 233.11C90.72 239.86 96.36 255.23 100.86 261.61C105.36 267.99 117 290.1 117.76 297.22C118.52 304.34 118.52 308.1 122.65 313.35C126.78 318.6 128.46 318.11 132.03 338.47C134.47 352.32 138.56 358.62 143.61 367.4C143.61 367.4 149.35 369.3 160 363.75C159.613 360.583 159.28 357.277 159 353.83Z" fill="#F9DDCA" stroke="black" stroke-linecap="round" stroke-linejoin="round"/>
<g opacity="0.5">
<path d="M131.827 301.407C132.274 296.002 129.719 291.379 126.119 291.081C122.519 290.784 119.239 294.924 118.791 300.329C118.344 305.734 120.9 310.357 124.499 310.655C128.099 310.952 131.38 306.812 131.827 301.407Z" fill="#F7C1DB"/>
</g>
<path d="M132.11 306.94C132.171 302.762 133.086 298.641 134.8 294.83" stroke="black" stroke-width="0.5" stroke-linecap="round" stroke-linejoin="round"/>
<path d="M120.855 303.504C121.175 303.491 121.388 302.304 121.331 300.853C121.273 299.401 120.967 298.235 120.647 298.248C120.327 298.26 120.114 299.447 120.172 300.898C120.229 302.35 120.535 303.516 120.855 303.504Z" fill="#FBFBFB"/>
<path d="M100.18 220.3C100.18 220.3 91.18 222.64 89.35 223.93C88.0416 224.741 86.5393 225.187 85 225.22" fill="#F9DDCA"/>
<path d="M100.18 220.3C100.18 220.3 91.18 222.64 89.35 223.93C88.0416 224.741 86.5393 225.187 85 225.22" stroke="black" stroke-linecap="round" stroke-linejoin="round"/>
<path d="M128.22 217.72C127.436 216.417 126.571 215.164 125.63 213.97L128.22 217.72Z" fill="#FBFBFB"/>
<path d="M128.22 217.72C127.436 216.417 126.571 215.164 125.63 213.97" stroke="black" stroke-linecap="round" stroke-linejoin="round"/>
</g>
<defs>
<clipPath id="clip0_1281_24499">
<rect width="180.41" height="443.81" fill="white"/>
</clipPath>
</defs>
</svg>
