<svg width="181" height="446" viewBox="0 0 181 446" fill="none" xmlns="http://www.w3.org/2000/svg">
<path d="M137.931 163.658C133.795 169.682 130.367 177.604 133.536 184.251C132.603 184.719 131.566 184.934 130.526 184.874C129.486 184.814 128.479 184.482 127.606 183.909C125 188.5 133.536 195.917 133.536 208.839C127.606 203 116.494 209.763 108.849 208.839C102.81 208.136 98.7537 201.942 97.7172 195.917C96.6807 189.893 97.7869 183.698 97.5776 177.574C96.7803 154.802 78.3129 136.71 72.0242 114.822C65.8751 93.4662 71.815 70.6446 70.6788 48.4254C70.1982 39.0449 70.5083 29.6403 71.6057 20.3126C72.6521 11.0454 80.7347 2.10951 89.9136 0.553259C100.936 -1.31424 108.431 1.34644 114.47 11.5976C120.51 21.8487 120.61 33.0637 120.988 44.9615C121.098 48.6463 121.198 52.4013 122.284 55.9255C123.46 59.7308 125.712 63.0943 127.785 66.4778C144.798 94.2292 157.435 135.003 137.931 163.658Z" fill="#604C9A"/>
<path d="M110.982 32.7021C110.982 32.7021 108.989 32.3205 108.471 31.2061L110.982 32.7021Z" fill="#F9DDCA"/>
<path d="M110.982 32.7021C110.982 32.7021 108.989 32.3205 108.471 31.2061" stroke="black" stroke-linecap="round" stroke-linejoin="round"/>
<path d="M91.6377 11.567C91.6377 11.567 92.6343 10.0107 96.1225 9.87018C96.1225 9.87018 93.4615 8.86615 92.5247 9.0268C92.9728 8.61137 93.5093 8.30487 94.0933 8.13082C94.6772 7.95678 95.293 7.91982 95.8933 8.02277C95.8933 8.02277 95.5146 6.69745 94.3983 6.51673C94.642 6.16432 94.9539 5.86522 95.3153 5.63746C95.6767 5.40969 96.0801 5.25796 96.5012 5.19141" stroke="black" stroke-linecap="round" stroke-linejoin="round"/>
<path d="M103.896 58.4959C102.039 59.8444 99.8776 60.7069 97.6074 61.006C95.5575 60.9397 93.5428 60.451 91.6875 59.5702C89.8885 58.7657 88.1557 57.8189 86.505 56.7389C85.9864 56.4819 85.512 56.143 85.0998 55.7349C84.7746 55.3413 84.5031 54.9057 84.2925 54.4397C82.5286 50.7249 81.3549 46.7541 80.8143 42.6724C80.1964 38.4756 79.439 33.9675 81.5319 30.0417C82.5986 27.9418 84.2463 26.1981 86.2758 25.0216C88.1794 23.8268 89.9334 22.9633 90.5115 20.6942C90.711 19.5376 90.8507 18.3714 90.93 17.2002C91.0777 16.2655 91.3457 15.3542 91.7273 14.4893C91.8768 14.1379 92.4848 13.5756 92.8236 13.7263C92.9197 15.2681 92.8259 16.8161 92.5446 18.3348C92.4848 18.897 91.9865 20.5637 92.1957 21.0858C92.5745 22.0396 95.5743 22.14 96.4713 22.2906C98.3641 22.4739 100.203 23.03 101.883 23.9272C102.851 24.3582 103.751 24.9299 104.554 25.624C105.431 26.4875 106.178 27.5517 106.976 28.4855C107.499 29.1874 107.918 29.9618 108.221 30.7847C108.995 32.8289 109.485 34.971 109.677 37.1503C110.314 41.7588 110.544 46.9195 109.148 51.4476C108.495 53.6892 107.219 55.6959 105.471 57.2309C104.982 57.6827 104.454 58.1044 103.896 58.4959Z" fill="#F9DDCA" stroke="black" stroke-linecap="round" stroke-linejoin="round"/>
<path d="M87.8279 40.3265C87.8075 40.1726 87.6672 40.0644 87.5144 40.0849C87.3616 40.1054 87.2543 40.2468 87.2747 40.4007L87.7564 44.0433C87.7768 44.1972 87.9171 44.3053 88.0699 44.2848C88.2227 44.2643 88.33 44.1229 88.3097 43.969L87.8279 40.3265Z" stroke="black" stroke-linecap="round" stroke-linejoin="round"/>
<path d="M100.972 37.9358C100.952 37.7819 100.811 37.6738 100.659 37.6943C100.506 37.7148 100.399 37.8562 100.419 38.0101L100.901 41.6527C100.921 41.8066 101.061 41.9147 101.214 41.8942C101.367 41.8737 101.474 41.7323 101.454 41.5784L100.972 37.9358Z" stroke="black" stroke-linecap="round" stroke-linejoin="round"/>
<path d="M89.2059 36.7896C87.7901 36.6276 86.3564 36.8172 85.03 37.3418" stroke="black" stroke-linecap="round" stroke-linejoin="round"/>
<path d="M97.0693 35.3233C97.0693 35.3233 99.0626 33.8775 102.88 34.3193" stroke="black" stroke-linecap="round" stroke-linejoin="round"/>
<path d="M93.3718 39.0283L94.7671 47.2915" stroke="black" stroke-linecap="round" stroke-linejoin="round"/>
<path d="M81.5519 51.4677C81.5519 51.4677 77.4358 51.6584 76.1302 48.2749C74.8247 44.8913 71.0873 34.5297 75.0041 35.6542C77.4059 36.3169 76.9973 36.9795 78.1833 37.2607C78.1833 37.2607 79.1201 46.1965 80.0569 47.9837C80.6326 49.1098 81.132 50.2737 81.5519 51.4677Z" fill="#F9DDCA" stroke="black" stroke-linecap="round" stroke-linejoin="round"/>
<path d="M75.8013 38.5557C75.8013 38.5557 76.7979 38.646 77.4058 41.7886" stroke="black" stroke-linecap="round" stroke-linejoin="round"/>
<path d="M112.527 45.2633C112.527 45.2633 111.949 42.462 111.77 40.6447C111.57 38.5061 110.703 32.9237 110.703 32.9237C111.365 32.4121 111.967 31.8259 112.497 31.1767C113.225 30.253 115.846 30.4337 115.836 34.721C115.826 39.0082 115.577 41.6588 114.46 43.1448C113.344 44.6307 113.394 45.3335 112.527 45.2633Z" fill="#F9DDCA" stroke="black" stroke-linecap="round" stroke-linejoin="round"/>
<path d="M113.673 33.5166C113.673 33.5166 112.437 33.9985 113.005 37.6231" stroke="black" stroke-linecap="round" stroke-linejoin="round"/>
<path d="M144.02 369.354C145.017 371.121 145.744 372.426 146.821 374.474C150.508 381.502 154.574 390.609 158.78 405.127C160.773 411.915 156.887 418.28 157.455 422.196C158.023 426.111 159.089 431.182 158.342 434.947C157.594 438.712 155.352 434.947 155.352 440.6C155.352 446.252 170.67 444.736 177.397 442.849C184.124 440.961 175.145 424.776 172.902 421.393C170.66 418.009 175.035 414.866 171.288 408.471C168.298 403.31 163.385 388.922 160.614 369.735C160.395 368.219 160.195 366.673 160.006 365.097C159.807 363.48 159.627 361.833 159.468 360.167C159.308 358.5 159.169 356.833 159.049 355.147C157.166 328.791 151.027 314.745 147.469 310.036C143.911 305.327 139.585 291.341 139.585 291.341C138.439 249.553 128.333 218.488 128.333 218.488C128.891 210.696 128.012 202.866 125.742 195.396L84.2229 226.038C87.452 228.79 87.9303 227.193 89.4352 233.97C90.9401 240.748 96.5412 256.179 101.036 262.575C105.531 268.971 117.111 291.17 117.909 298.339C118.706 305.507 118.656 309.252 122.772 314.524C126.888 319.795 128.563 319.313 132.131 339.745C133.323 347.385 135.836 354.756 139.555 361.522C140.831 363.902 142.206 366.241 143.661 368.791L144.02 369.354Z" fill="#F9DDCA" stroke="black" stroke-linecap="round" stroke-linejoin="round"/>
<g opacity="0.5">
<g filter="url(#filter0_f_1439_9382)">
<path d="M131.931 302.546C132.376 297.119 129.83 292.478 126.242 292.179C122.655 291.879 119.385 296.036 118.939 301.463C118.494 306.89 121.041 311.531 124.628 311.831C128.216 312.13 131.485 307.973 131.931 302.546Z" fill="#F7C1DB"/>
</g>
<path d="M120.99 304.645C121.309 304.632 121.521 303.44 121.464 301.983C121.407 300.526 121.102 299.355 120.783 299.368C120.464 299.38 120.252 300.572 120.309 302.029C120.366 303.486 120.671 304.657 120.99 304.645Z" fill="#FBFBFB"/>
</g>
<path d="M132.2 308.088C132.261 303.893 133.174 299.755 134.881 295.929" stroke="black" stroke-width="0.5" stroke-linecap="round" stroke-linejoin="round"/>
<path d="M100.388 221.108C100.388 221.108 91.4185 223.448 89.5947 224.753C88.2793 225.574 86.7667 226.018 85.2195 226.038" fill="#F9DDCA"/>
<path d="M100.388 221.108C100.388 221.108 91.4185 223.448 89.5947 224.753C88.2793 225.574 86.7667 226.018 85.2195 226.038" stroke="black" stroke-linecap="round" stroke-linejoin="round"/>
<path d="M128.333 218.508C127.546 217.205 126.68 215.951 125.742 214.753L128.333 218.508Z" fill="#FBFBFB"/>
<path d="M128.333 218.508C127.546 217.205 126.68 215.951 125.742 214.753" stroke="black" stroke-linecap="round" stroke-linejoin="round"/>
<path d="M45.803 376.592C43.3613 366.883 41.3681 358.208 41.5076 354.664C41.7866 345.909 42.5042 330.377 41.5076 325.999C40.511 321.622 41.9162 318.238 41.5076 314.563C41.2584 312.364 38.0094 286.822 36.4049 262.946C35.3385 246.992 34.4116 227.273 36.2554 220.255C40.7302 202.744 41.9361 202.182 43.2317 197.664C43.8534 195.955 44.6518 194.316 45.6137 192.774L78.4424 224.753C76.5444 225.211 74.8719 226.339 73.7276 227.932C72.5833 229.525 72.0426 231.478 72.2036 233.438C73.2002 262.404 63.9017 292.525 65.0279 306.651C66.1541 320.778 61.6693 324.724 61.6792 331.501C61.6892 338.278 67.2902 354.654 66.7421 365.949C66.6225 368.389 66.3733 371.592 66.0843 375.217C65.0877 388.369 63.6226 407.054 66.4829 414.795C70.1306 424.685 63.9615 422.988 65.6458 430.047C67.3301 437.105 72.9411 445.007 65.9348 445.017C58.9286 445.027 44.637 445.017 46.8694 438.812C49.1019 432.607 57.5133 426.944 54.7128 422.426C51.9123 417.908 52.4704 416.221 53.3076 410.569C53.8059 407.205 49.4208 391.12 45.8628 376.813L45.803 376.592Z" fill="#F9DDCA" stroke="black" stroke-linecap="round" stroke-linejoin="round"/>
<g opacity="0.5">
<g filter="url(#filter1_f_1439_9382)">
<path d="M59.1377 323.042C62.4355 321.732 63.5252 316.622 61.5716 311.629C59.618 306.635 55.3609 303.648 52.063 304.957C48.7652 306.267 47.6755 311.376 49.6291 316.37C51.5827 321.364 55.8398 324.351 59.1377 323.042Z" fill="#F7C1DB"/>
</g>
<path d="M52.3317 311.662C52.7113 310.533 52.7739 309.534 52.4715 309.431C52.1691 309.327 51.6163 310.159 51.2367 311.288C50.8571 312.418 50.7945 313.417 51.0968 313.52C51.3992 313.623 51.952 312.791 52.3317 311.662Z" fill="#FBFBFB"/>
</g>
<path d="M51.9322 323.44C51.9322 323.44 46.8893 316.271 46.3511 312.335" stroke="black" stroke-width="0.5" stroke-linecap="round" stroke-linejoin="round"/>
<path d="M77.3959 224.753C77.3959 224.753 71.2667 220.827 69.2734 220.255L77.3959 224.753Z" fill="#F9DDCA"/>
<path d="M77.3959 224.753C77.3959 224.753 71.2667 220.827 69.2734 220.255" stroke="black" stroke-linecap="round" stroke-linejoin="round"/>
<path d="M130.257 125.213C131.788 122.368 133.072 119.395 134.094 116.327C134.562 114.741 135.439 110.213 136.286 110.303C137.413 110.494 138.469 116.327 138.469 116.327C138.469 116.327 141.788 130.002 142.117 133.737C142.535 138.537 141.28 146.579 141.419 149.41C141.559 152.242 140.303 153.788 139.605 160.455C138.908 167.121 145.097 204.933 145.445 207.754C145.794 210.576 144.608 218.487 144.678 220.536C144.748 222.584 146.362 222.865 144.897 226.108C143.432 229.351 142.306 240.275 143.054 241.289C143.801 242.303 143.522 246.871 143.99 248.317C144.459 249.763 140.821 254.622 140.074 257.072C139.326 259.522 141.848 261.028 142.595 259.331C143.343 257.635 149.322 254.904 149.512 254.06C149.701 253.217 153.897 248.598 154.086 246.711C154.275 244.823 155.581 244.261 155.013 241.319C154.445 238.377 152.99 221.971 152.99 221.971C151.864 215.194 157.973 163.798 156.378 154.762C154.784 145.725 155.302 104.56 154.176 95.5239C153.05 86.4877 153.897 76.8088 141.14 76.8088C127.616 76.8088 115.935 74.3088 109.637 73.5256C109.283 73.146 108.95 72.7471 108.64 72.3308C105.83 68.6661 108.64 53.1338 108.64 53.1338C108.64 53.1338 103.159 60.7544 98.1756 60.6138C93.1925 60.4732 86.3058 56.7182 86.3058 56.7182C88.9269 58.5957 90.0531 65.0014 91.5481 71.7786C92.146 74.4795 91.2391 75.9353 89.8139 76.7988L81.6416 77.0297L71.2668 79.4193C66.5129 80.0619 61.9882 81.1362 59.3073 82.6924C54.9421 85.2326 52.4904 104.59 51.2745 113.546C50.0587 122.502 41.9462 144.079 37.9098 149.35C33.8735 154.621 28.4917 168.617 27.4154 174.17C26.339 179.722 10.1738 211.59 9.08751 213.989C8.00119 216.389 8.73869 218.939 8.47957 220.887C8.22045 222.835 3.10777 228.618 1.60287 231.931C0.0979731 235.245 1.60287 235.435 3.99477 240.245C6.38666 245.054 4.7223 245.506 5.77872 246.962C6.83514 248.418 7.77197 248.568 9.85491 252.614C10.0285 252.94 10.3018 253.201 10.6341 253.357C10.9665 253.514 11.3401 253.558 11.6995 253.484C12.059 253.409 12.3849 253.22 12.629 252.944C12.873 252.668 13.0221 252.32 13.0541 251.952C13.2534 249.837 13.4693 247.755 13.7019 245.707C13.9112 243.779 15.8346 243.488 16.3031 241.801C17.5289 237.383 17.7681 232.152 18.5455 228.387C19.3228 224.622 18.077 220.194 19.0238 218.006C23.0542 208.475 27.6058 199.177 32.6576 190.154C33.3054 188.919 34.8801 186.268 35.5678 185.043C36.7934 183.003 38.1941 181.074 39.7536 179.28C48.1053 169.451 54.0053 158.959 57.2742 141.749C58.1811 136.96 59.4867 134.721 61.0115 131.277C61.1311 130.986 62.6859 127.653 62.8852 127.091L64.0911 124.159L65.4963 130.645C67.4896 142.282 70.031 142.944 70.8482 147.322C72.4827 156.087 55.0916 174.762 53.4571 177.844C52.8691 178.959 51.4639 185.646 49.2614 188.186C80.6948 220.957 123.221 189.361 123.29 189.32C118.766 179.411 112.527 173.256 110.135 166.439C109.138 163.527 111.54 153.868 116.633 147.302C120.249 142.604 123.551 137.67 126.52 132.532L130.257 125.213ZM11.29 244.341L10.4728 245.466L9.34663 243.066V236.148L10.3433 234.592C11.7624 237.635 12.0967 241.078 11.29 244.341Z" fill="#F9DDCA" stroke="black" stroke-linecap="round" stroke-linejoin="round"/>
<path d="M47.4974 149.601C47.4974 149.601 46.0423 144.44 47.627 141.298" stroke="black" stroke-width="0.5" stroke-linecap="round" stroke-linejoin="round"/>
<path d="M145.695 153.477C147.426 151.878 148.685 149.827 149.332 147.553" stroke="black" stroke-width="0.5" stroke-linecap="round" stroke-linejoin="round"/>
<g opacity="0.5">
<path d="M66.6245 93.6836C67.4578 88.3651 65.8239 83.6864 62.9749 83.2334C60.126 82.7803 57.141 86.7245 56.3077 92.043C55.4744 97.3614 57.1083 102.04 59.9573 102.493C62.8062 102.946 65.7912 99.002 66.6245 93.6836Z" fill="#F6BAD6"/>
</g>
<g opacity="0.5">
<path d="M144.401 106C149.335 105.49 152.718 99.0227 151.959 91.5537C151.199 84.0847 146.584 78.4428 141.651 78.952C136.717 79.4612 133.334 85.9288 134.093 93.3978C134.853 100.867 139.468 106.509 144.401 106Z" fill="#F6BAD6"/>
</g>
<path d="M59.8406 87.4636C60.1094 86.6772 60.1881 85.9913 60.0163 85.9318C59.8446 85.8722 59.4874 86.4614 59.2186 87.2479C58.9498 88.0343 58.8712 88.7202 59.0429 88.7797C59.2146 88.8393 59.5718 88.2501 59.8406 87.4636Z" fill="#FBFBFB"/>
<path d="M148.921 88.5692C149.233 88.5012 149.305 87.6025 149.082 86.5619C148.858 85.5213 148.424 84.7328 148.112 84.8008C147.8 84.8687 147.728 85.7674 147.952 86.808C148.175 87.8486 148.609 88.6371 148.921 88.5692Z" fill="#FBFBFB"/>
<path d="M125.692 80.4736C122.005 81.819 111.451 83.4857 107.604 83.305C103.757 83.1243 103.228 86.3171 101.544 86.6986" stroke="black" stroke-width="0.5" stroke-linecap="round" stroke-linejoin="round"/>
<path d="M72.4827 81.8193C72.8116 82.9539 86.256 85.6146 91.4982 84.8917C93.8702 85.0824 93.0031 86.217 94.6475 86.7792" stroke="black" stroke-width="0.5" stroke-linecap="round" stroke-linejoin="round"/>
<path d="M103.787 79.3588L107.604 55.2119" stroke="black" stroke-width="0.5" stroke-linecap="round" stroke-linejoin="round"/>
<path d="M83.5552 182.152C83.9861 181.69 84.2921 181.124 84.4439 180.509C84.5957 179.893 84.5882 179.249 84.4222 178.638" stroke="black" stroke-width="0.5" stroke-linecap="round" stroke-linejoin="round"/>
<path d="M123.38 189.26C123.31 189.31 80.7844 220.907 49.3509 188.136C48.2447 189.431 47.1583 190.746 46.2913 191.901L45.6235 192.845L78.4423 224.753L84.2227 226.038L125.702 195.405L123.38 189.26Z" fill="#17191B" stroke="black" stroke-linecap="round" stroke-linejoin="round"/>
<path d="M90.8005 121.789C90.8005 121.789 83.2262 105.886 68.5958 101.177C68.5958 101.177 58.789 111.438 62.7755 121.789C65.0876 127.804 76.3495 135.063 90.8005 121.789Z" fill="#17191B" stroke="black" stroke-linecap="round" stroke-linejoin="round"/>
<path d="M124.138 117.271C123.706 113.083 122.464 109.02 120.48 105.313C103.537 106.448 90.8005 121.94 90.8005 121.94C102.312 139.3 115.945 135.304 120.699 129.812C122.73 130.433 124.726 131.163 126.679 132.001C127.377 130.233 128.672 127.754 130.008 125.183C125.941 123.125 124.138 117.271 124.138 117.271Z" fill="#17191B" stroke="black" stroke-linecap="round" stroke-linejoin="round"/>
<path d="M68.5957 101.177C71.3287 92.3308 75.7726 84.1173 81.6714 77.0098" stroke="black" stroke-linecap="round" stroke-linejoin="round"/>
<path d="M120.48 105.313C120.48 105.313 123.908 88.3552 123.091 75.5137" stroke="black" stroke-linecap="round" stroke-linejoin="round"/>
<defs>
<filter id="filter0_f_1439_9382" x="116.889" y="290.163" width="17.0928" height="23.6826" filterUnits="userSpaceOnUse" color-interpolation-filters="sRGB">
<feFlood flood-opacity="0" result="BackgroundImageFix"/>
<feBlend mode="normal" in="SourceGraphic" in2="BackgroundImageFix" result="shape"/>
<feGaussianBlur stdDeviation="1" result="effect1_foregroundBlur_1439_9382"/>
</filter>
<filter id="filter1_f_1439_9382" x="46.6589" y="302.649" width="17.8828" height="22.7002" filterUnits="userSpaceOnUse" color-interpolation-filters="sRGB">
<feFlood flood-opacity="0" result="BackgroundImageFix"/>
<feBlend mode="normal" in="SourceGraphic" in2="BackgroundImageFix" result="shape"/>
<feGaussianBlur stdDeviation="1" result="effect1_foregroundBlur_1439_9382"/>
</filter>
</defs>
</svg>
