<svg width="173" height="476" viewBox="0 0 173 476" fill="none" xmlns="http://www.w3.org/2000/svg">
<path d="M132.857 215.677C132.8 215.5 132.753 215.319 132.717 215.136C123.573 219.354 95.3816 228.61 47.8412 212.131C44.9364 220.944 42.6606 229.953 41.0312 239.089C40.3001 243.597 39.7292 251.962 39.2786 261.91C65.8479 274.372 80.9503 269.594 85.4569 267.52C85.5677 266.135 85.7516 264.758 86.0078 263.393C86.6988 262.02 88.6116 261.84 88.7618 264.164C88.8219 265.266 88.892 266.458 88.9621 267.71C110.444 277.588 127.699 270.605 135.491 266.087C136.493 252.483 137.083 242.185 137.083 242.185C136.566 233.229 135.151 224.349 132.857 215.677Z" fill="#17191B" stroke="black" stroke-linecap="round" stroke-linejoin="round"/>
<path d="M75.4822 246.733C77.3553 248.378 78.6741 250.561 79.2578 252.985C79.7082 255.079 80.6447 257.039 81.9918 258.705C82.8752 259.834 84.0397 260.712 85.3688 261.249C86.6979 261.787 88.1448 261.966 89.5647 261.768C90.9846 261.57 92.3276 261.002 93.4592 260.122C94.5908 259.242 95.4714 258.079 96.0126 256.751" fill="#17191B"/>
<path d="M75.4822 246.733C77.3553 248.378 78.6741 250.561 79.2578 252.985C79.7082 255.079 80.6447 257.039 81.9918 258.705C82.8752 259.834 84.0397 260.712 85.3688 261.249C86.6979 261.787 88.1448 261.966 89.5647 261.768C90.9846 261.57 92.3276 261.002 93.4592 260.122C94.5908 259.242 95.4714 258.079 96.0126 256.751" stroke="black" stroke-linecap="round" stroke-linejoin="round"/>
<path d="M39.2786 261.89C37.9867 290.441 37.7463 332.115 38.0267 333.929C38.4073 336.363 37.4659 342.564 36.9051 346.882C36.3442 351.199 37.6562 363.041 37.6562 363.041C36.7549 372.427 42.4833 394.808 46.4793 406.759C50.4852 408.712 56.3939 407.4 64.566 396.901C67.1599 386.182 73.1688 375.523 73.8898 370.925C75.0215 363.792 69.0126 361.157 69.0126 358.903C69.0126 356.649 70.3246 351.77 69.7637 342.193C69.3932 335.952 74.2504 319.773 77.6855 309.234C80.0401 302.039 81.825 294.67 83.0234 287.195C84.105 280.433 84.9362 272.338 85.457 267.55C80.9503 269.573 65.8479 274.352 39.2786 261.89Z" fill="#F9DDCA" stroke="black" stroke-linecap="round" stroke-linejoin="round"/>
<path d="M59.3684 349.907C59.3684 349.907 57.4956 351.981 57.3053 353.484C57.1151 354.986 57.1151 361.929 55.052 365.685C52.9889 369.442 50.7356 370.454 47.8213 369.633" stroke="black" stroke-linecap="round" stroke-linejoin="round"/>
<g opacity="0.5">
<path d="M48.835 367.181C52.3219 365.713 53.4523 360.492 51.3599 355.52C49.2676 350.548 44.7447 347.708 41.2578 349.176C37.771 350.645 36.6405 355.865 38.7329 360.837C40.8253 365.809 45.3482 368.649 48.835 367.181Z" fill="#F7C1DB"/>
</g>
<path d="M41.6292 358.569C42.0574 358.389 41.8896 357.019 41.2543 355.51C40.6191 354 39.757 352.923 39.3288 353.103C38.9006 353.284 39.0684 354.653 39.7036 356.163C40.3389 357.672 41.2009 358.75 41.6292 358.569Z" fill="#FBFBFB"/>
<path d="M46.4795 406.759C47.2107 409.083 48.087 411.358 49.1033 413.571C52.2981 419.762 51.3567 422.017 51.547 425.964C51.7372 429.911 43.1445 439.538 42.1631 443.054C41.1816 446.57 38.3574 450.668 37.376 454.745C36.3945 458.822 40.751 463.912 46.3893 465.034C47.8938 465.421 49.4756 465.39 50.9636 464.943C52.4516 464.496 53.7892 463.651 54.8318 462.499C56.2051 462.498 57.5485 462.098 58.6988 461.347C59.849 460.597 60.7567 459.528 61.3114 458.271C65.2573 453.202 61.5918 444.467 61.5918 444.467C62.4431 438.266 69.7639 434.89 69.7639 434.89C80.1894 425.022 70.3248 418.861 70.3248 418.861C68.6323 416.036 64.8767 413.782 64.8767 413.782C62.7335 408.833 63.1341 402.872 64.5662 396.932C56.3941 407.4 50.5755 408.713 46.4795 406.759Z" fill="#FBFBFB" stroke="black" stroke-linecap="round" stroke-linejoin="round"/>
<path d="M135.491 266.068C127.7 270.586 110.454 277.569 88.9623 267.691C90.4245 293.688 92.5276 349.237 92.2972 353.465C92.0168 358.534 92.0168 362.481 92.0168 366.989C92.0168 371.497 83.5643 392.905 82.7231 397.694C82.1322 401 83.5643 405.909 83.8547 412.601C86.8592 416.908 92.4975 420.164 103.123 415.706C106.488 406.81 113.328 396.532 113.989 392.665C114.831 387.596 113.419 383.368 114.55 375.474C115.682 367.58 123.564 366.178 122.712 353.785C121.861 341.393 124.966 344.489 128.911 328.741C131.355 318.903 133.899 288.128 135.491 266.068Z" fill="#F9DDCA" stroke="black" stroke-linecap="round" stroke-linejoin="round"/>
<path d="M107.069 371.027C107.069 371.027 105.567 366.709 105.937 365.627C106.308 364.545 104.255 361.76 104.065 356.511C103.874 351.262 101.25 348.787 101.25 348.787" stroke="black" stroke-linecap="round" stroke-linejoin="round"/>
<g opacity="0.5">
<path d="M119.599 365.081C121.089 360.597 119.749 356.115 116.605 355.069C113.461 354.024 109.704 356.811 108.214 361.295C106.724 365.778 108.064 370.261 111.208 371.306C114.352 372.352 118.109 369.565 119.599 365.081Z" fill="#F7C1DB"/>
</g>
<path d="M113.66 359.995C114.334 358.503 114.538 357.138 114.114 356.947C113.691 356.755 112.801 357.81 112.127 359.302C111.452 360.794 111.248 362.159 111.672 362.351C112.095 362.542 112.985 361.488 113.66 359.995Z" fill="#FBFBFB"/>
<path d="M83.8548 412.6C84.0201 416 83.8287 419.408 83.2839 422.768C81.2809 434.89 79.0576 432.064 77.6456 442.493C76.2335 452.922 85.5372 453.513 84.4056 460.525C83.2739 467.538 86.6589 468.7 92.2973 473.208C97.9356 477.716 105.817 472.637 110.044 469.822C114.27 467.007 111.165 463.34 108.912 460.806C106.659 458.271 103.284 448.133 101.03 443.906C98.7768 439.678 100.75 432.635 101.311 423.048C101.557 420.526 102.167 418.052 103.123 415.705C92.4976 420.163 86.8392 416.907 83.8548 412.6Z" fill="#FBFBFB" stroke="black" stroke-linecap="round" stroke-linejoin="round"/>
<path d="M95.8123 110.399C122.061 112.203 127.249 92.878 131.435 79.8546C129.432 78.7627 127.519 77.7509 125.907 76.9695C119.708 73.9641 118.025 72.8321 115.952 70.578C113.879 68.324 115.952 54.7998 115.952 54.7998C114.079 56.4928 111.826 59.4982 109.012 60.4399C106.198 61.3816 101.871 60.8106 98.306 60.4399C94.7407 60.0692 89.2926 54.7998 89.2926 54.7998C90.4143 55.7415 90.6046 60.0592 90.4143 63.4453C90.224 66.8313 90.3242 70.2975 82.7229 72.5516C81.411 72.9423 80.2993 73.323 79.2978 73.7036C75.6124 84.6833 70.605 108.666 95.8123 110.399Z" fill="#F9DDCA" stroke="black" stroke-linecap="round" stroke-linejoin="round"/>
<path d="M101.431 93.701C101.431 93.701 102.713 91.1657 105.206 91.6267C107.7 92.0876 111.476 92.8593 113.118 92.6288C114.76 92.3983 129.632 90.5243 131.145 90.7147" stroke="black" stroke-linecap="round" stroke-linejoin="round"/>
<path d="M95.1915 92.8382C95.1915 92.8382 93.9296 90.9248 90.3944 90.8346C85.7876 90.6543 86.6789 91.025 82.7931 90.3538C78.9074 89.6826 72.6581 87.8192 70.3748 87.9094" stroke="black" stroke-linecap="round" stroke-linejoin="round"/>
<path d="M96.5234 78.9431C94.5906 63.4654 89.7634 55.3008 89.7634 55.3008" stroke="black" stroke-linecap="round" stroke-linejoin="round"/>
<path d="M108.972 73.2134C108.972 68.6352 115.472 56.0928 115.472 56.0928" stroke="black" stroke-linecap="round" stroke-linejoin="round"/>
<path d="M87.46 73.2126C87.46 73.2126 89.8034 69.4659 90.1139 66.4004Z" fill="#F9DDCA"/>
<path d="M87.46 73.2126C87.46 73.2126 89.8034 69.4659 90.1139 66.4004" stroke="black" stroke-linecap="round" stroke-linejoin="round"/>
<path d="M117.314 76.8898C117.314 76.8898 115.211 72.0712 115.191 68.2744Z" fill="#F9DDCA"/>
<path d="M117.314 76.8898C117.314 76.8898 115.211 72.0712 115.191 68.2744" stroke="black" stroke-linecap="round" stroke-linejoin="round"/>
<path d="M59.7791 119.575C61.6218 117.501 65.4174 113.374 67.6708 107.924C69.4634 103.586 71.1559 95.3115 72.1774 90.7434C73.6096 84.2518 74.9015 78.6718 76.3436 74.915C74.2797 75.8321 72.138 76.563 69.9441 77.0989L66.1685 78.1007C64.9668 78.3712 64.5061 78.5115 63.4445 78.7419C62.5832 78.9422 61.5016 79.1526 60.5302 79.2728C47.3006 80.8256 43.505 90.9638 39.7694 99.9498C36.2843 108.335 34.3915 122.17 33.6804 129.352C33.0094 136.175 29.7746 155.66 28.5829 159.016C27.3911 162.372 26.0391 166.138 25.5784 168.032C25.1178 169.925 25.6385 171.618 22.0833 175.044C18.528 178.47 14.7123 188.949 14.8626 192.876C15.0128 196.803 10.9768 219.744 9.79506 222.439C8.75945 224.836 8.04553 227.359 7.67192 229.942C7.29135 232.267 3.25538 239.56 1.16228 250.409C0.501298 253.855 1.99351 253.414 3.22533 256.57C3.95641 258.433 3.82622 261.91 4.91784 263.893C5.91932 265.646 6.27985 268.431 6.6504 270.094C7.02095 271.757 7.26131 271.337 7.96235 272.098C8.96383 273.25 9.60478 274.823 10.406 275.013C11.4074 275.244 12.469 276.796 14.492 276.516C15.1229 276.426 15.814 277.618 17.4965 276.947C18.4979 276.556 18.0974 275.554 18.4379 275.013C18.9686 274.172 19.0788 274.352 19.3292 273.18C19.6997 271.437 19.219 269.694 19.229 268.061C19.229 265.897 20.9316 262.611 20.9316 262.611C22.6942 260.287 22.6942 256.47 23.3251 252.593C23.8193 248.151 23.1282 243.658 21.3221 239.57C19.2691 235.092 18.7984 237.346 19.6196 228.55C20.4408 219.754 31.8978 208.133 35.3229 202.043C38.7479 195.952 37.5562 188.869 40.5606 182.407C43.1149 177.191 44.864 171.618 45.7483 165.878C46.1489 163.353 50.1548 153.315 53.1092 146.213C53.2093 145.992 53.64 122.981 53.5899 125.305C55.7888 123.547 57.8573 121.632 59.7791 119.575ZM13.9011 263.833C13.9011 265.696 14.0213 266.758 14.0213 266.758L12.7995 266.107L12.5191 263.793L12.8696 260.617L13.7209 259.355L14.0714 260.477C13.8475 261.567 13.7901 262.685 13.9011 263.793V263.833Z" fill="#F9DDCA" stroke="black" stroke-linecap="round" stroke-linejoin="round"/>
<path d="M57.0249 109.297C57.0249 109.297 56.0835 113.054 54.7716 114.176C53.4597 115.298 53.9203 120.747 53.5798 125.306" stroke="black" stroke-linecap="round" stroke-linejoin="round"/>
<path d="M33.0194 172.841C33.0194 172.841 32.0179 170.527 32.1882 164.195" stroke="black" stroke-linecap="round" stroke-linejoin="round"/>
<path d="M37.2158 177.097C38.6335 175.617 39.6653 173.811 40.2203 171.838" stroke="black" stroke-linecap="round" stroke-linejoin="round"/>
<g opacity="0.5">
<path d="M51.8777 101.571C53.8812 96.5624 53.7446 91.7975 51.5724 90.928C49.4002 90.0584 46.0151 93.4136 44.0116 98.4219C42.008 103.43 42.1447 108.195 44.3168 109.065C46.489 109.934 49.8741 106.579 51.8777 101.571Z" fill="#F7C1DB"/>
</g>
<path d="M47.6867 96.9108C48.3636 95.4196 48.5693 94.055 48.1463 93.8629C47.7232 93.6707 46.8316 94.7238 46.1547 96.215C45.4779 97.7062 45.2721 99.0708 45.6952 99.2629C46.1182 99.4551 47.0099 98.402 47.6867 96.9108Z" fill="#FBFBFB"/>
<path d="M169.191 175.675C168.911 173.842 168.911 170.316 168.35 166.94C167.789 163.564 166.657 155.289 165.526 145.521C164.394 135.754 167.779 128.07 165.526 112.462C162.652 92.4262 154.6 89.6513 148.561 88.0183C144.895 87.0165 139.748 84.3417 134.87 81.707C132.667 90.1722 129.553 104.117 129.723 114.596C129.843 121.839 132.307 127.399 135.551 132.628C136.393 133.991 138.556 135.543 139.978 137.096C140.539 133.369 140.899 130.935 140.899 130.935C144.284 137.417 147.499 168.342 147.499 171.588C147.55 175.295 147.977 178.987 148.771 182.608C149.472 185.423 149.051 188.949 148.771 195C148.491 201.051 149.772 207.823 151.445 214.865C153.117 221.908 154.73 235.953 153.979 239.069C153.228 242.184 152.717 246.532 149.893 249.778C147.068 253.024 146.658 257.792 144.825 263.012C142.992 268.231 145.827 268.371 143.703 274.712C141.58 281.054 144.705 280.904 144.705 280.904C147.379 282.176 148.511 275.834 148.511 275.834C149.212 274.993 149.352 279.501 149.352 280.763C149.352 282.026 147.519 285.271 146.958 286.403C146.397 287.535 145.696 293.416 149.071 293.416C152.446 293.416 152.597 291.302 152.597 291.302C153.157 290.03 157.244 291.022 157.945 289.299C158.646 287.575 160.899 286.904 163.433 284.37C165.966 281.835 166.437 279.16 166.958 276.766C167.479 274.372 168.51 274.512 169.071 271.687C169.632 268.862 167.799 265.065 166.818 254.787C165.836 244.508 167.659 244.358 168.23 239.99C168.801 235.622 167.749 233.709 167.749 229.942C167.749 226.176 170.994 212.471 171.835 201.061C172.676 189.65 169.472 177.498 169.191 175.675Z" fill="#F9DDCA" stroke="black" stroke-linecap="round" stroke-linejoin="round"/>
<path d="M138.756 113.815C138.756 113.815 138.205 123.753 139.407 124.835L140.899 130.846" stroke="black" stroke-linecap="round" stroke-linejoin="round"/>
<path d="M158.986 172.84C158.754 175.742 158.285 178.62 157.584 181.445" stroke="black" stroke-linecap="round" stroke-linejoin="round"/>
<path d="M150.203 170.295C150.532 172.636 151.422 174.863 152.797 176.787" stroke="black" stroke-linecap="round" stroke-linejoin="round"/>
<g opacity="0.5">
<path d="M157.223 116.515C160.449 115.113 161.166 109.603 158.823 104.209C156.481 98.8144 151.966 95.578 148.739 96.98C145.513 98.382 144.796 103.892 147.139 109.286C149.482 114.68 153.996 117.917 157.223 116.515Z" fill="#F7C1DB"/>
</g>
<path d="M158.148 107.727C158.619 107.566 158.519 106.022 157.925 104.279C157.33 102.535 156.466 101.251 155.995 101.412C155.524 101.573 155.624 103.117 156.218 104.861C156.813 106.604 157.677 107.888 158.148 107.727Z" fill="#FBFBFB"/>
<path d="M135.551 132.629C132.306 127.399 129.843 121.839 129.723 114.596C129.552 104.118 132.697 90.1726 134.87 81.6774C133.698 81.0563 132.547 80.4252 131.435 79.8241C127.249 92.8474 122.061 112.172 95.8124 110.369C70.605 108.666 75.6125 84.6828 79.2979 73.6631C78.2163 74.0738 77.2949 74.4846 76.2935 74.8753C74.9014 78.672 73.6095 84.252 72.1774 90.7437C71.1759 95.3118 69.4633 103.587 67.6707 107.924C65.4174 113.374 61.6618 117.502 59.779 119.575C57.854 121.633 55.7822 123.548 53.5798 125.306C53.4196 132.318 52.8187 146.884 53.0991 146.213C53.71 160.178 52.7085 192.436 51.697 198.496C51.2063 201.442 49.6941 206.22 47.8013 212.111C95.3417 228.61 123.533 219.354 132.677 215.116C131.425 209.326 131.756 184.061 133.678 175.375C135.141 168.713 138.365 147.635 139.958 137.077C138.506 135.544 136.392 133.991 135.551 132.629Z" fill="#17191B" stroke="black" stroke-linecap="round" stroke-linejoin="round"/>
<path d="M89.1526 50.2705C89.1526 50.2705 86.1482 52.6648 83.6745 51.1521C82.673 50.5209 82.1022 48.9481 81.4612 47.4454C80.0333 44.4431 78.9901 41.2724 78.3566 38.0085C78.0259 35.9444 78.1802 33.8316 78.8073 31.8375C79.0506 30.5464 79.3853 29.2743 79.8088 28.0307C82.0221 24.7448 86.1582 27.0289 86.729 31.0361C87.1797 34.2919 89.1526 50.2705 89.1526 50.2705Z" fill="#F9DDCA" stroke="black" stroke-linecap="round" stroke-linejoin="round"/>
<path d="M130.113 32.9796C129.693 30.8658 129.492 29.1026 128.721 28.5216C128.454 28.3309 128.169 28.1665 127.87 28.0307C127.096 27.6873 126.252 27.5295 125.406 27.5699C126.167 21.3588 126.518 13.5448 122.822 8.60595C117.815 1.92399 106.869 -0.320027 98.5766 1.80377C91.0955 3.7172 81.4112 8.41561 81.3311 27.9406C81.3311 30.0644 81.4212 32.3585 81.6515 34.8529C82.0579 38.4545 82.7171 42.023 83.6245 45.532C85.7877 53.1156 89.8437 57.233 95.9928 60.7192C98.196 61.9715 104.005 62.1217 106.148 61.8713C109.893 61.4505 113.609 58.2247 115.502 56.2312C116.52 55.1687 117.479 54.0517 118.376 52.8852C120.173 53.2728 122.047 53.0507 123.704 52.2541C125.086 51.5027 126.097 49.2487 126.878 47.5156C128.01 45.0311 130.213 42.707 130.734 39.0605C130.824 37.0141 130.615 34.9655 130.113 32.9796Z" fill="#F9DDCA" stroke="black" stroke-linecap="round" stroke-linejoin="round"/>
<path d="M122.823 45.0306C122.823 45.0306 125.396 27.94 127.009 31.4863C128.621 35.0327 128.01 37.1364 128.01 37.1364" stroke="black" stroke-linecap="round" stroke-linejoin="round"/>
<path d="M118.336 52.8849C119.423 50.9303 120.251 48.8424 120.8 46.6738Z" fill="#F9DDCA"/>
<path d="M118.336 52.8849C119.423 50.9303 120.251 48.8424 120.8 46.6738" stroke="black" stroke-linecap="round" stroke-linejoin="round"/>
<path d="M91.1362 14.1049C92.6019 11.5654 92.9048 8.9954 91.8127 8.36466C90.7205 7.73393 88.647 9.28129 87.1813 11.8208C85.7155 14.3603 85.4127 16.9303 86.5048 17.561C87.5969 18.1917 89.6705 16.6444 91.1362 14.1049Z" fill="#FBFBFB"/>
<path d="M86.5387 24.0033C86.3334 22.5076 86.3334 20.9909 86.5387 19.4952C86.9193 17.6219 90.3744 16.8204 91.2357 16.4898C93.5191 15.6083 113.018 15.6483 116.273 16.4898C119.528 17.3313 117.334 23.5024 117.334 23.5024C121.34 24.6344 123.443 29.3028 123.443 29.3028C123.939 28.5447 124.632 27.9353 125.446 27.5396C126.207 21.3285 126.558 13.5145 122.863 8.57567C117.855 1.89372 106.909 -0.3503 98.6166 1.7735C91.1356 3.68692 81.4512 8.38533 81.3711 27.9103C83.8448 24.0634 86.5387 24.0033 86.5387 24.0033Z" fill="#604C9A" stroke="black" stroke-linecap="round" stroke-linejoin="round"/>
<path d="M93.7903 33.8049C93.7982 33.6501 93.6794 33.5183 93.525 33.5104C93.3706 33.5025 93.2389 33.6215 93.231 33.7762L93.0437 37.438C93.0358 37.5927 93.1545 37.7245 93.309 37.7324C93.4634 37.7403 93.595 37.6213 93.6029 37.4666L93.7903 33.8049Z" stroke="black" stroke-linecap="round" stroke-linejoin="round"/>
<path d="M109.814 33.7949C109.82 33.6401 109.699 33.5098 109.545 33.5039C109.39 33.498 109.26 33.6187 109.254 33.7735L109.114 37.4373C109.108 37.5921 109.229 37.7224 109.383 37.7283C109.538 37.7342 109.668 37.6135 109.674 37.4587L109.814 33.7949Z" stroke="black" stroke-linecap="round" stroke-linejoin="round"/>
<path d="M89.7937 30.4351C92.1728 30.7608 94.5852 30.7608 96.9643 30.4351C97.7683 30.3237 98.5839 30.3237 99.3879 30.4351" stroke="black" stroke-linecap="round" stroke-linejoin="round"/>
<path d="M116.253 30.5849C113.582 30.8025 110.896 30.7321 108.241 30.3749C107.468 30.2233 106.676 30.2064 105.897 30.3249C105.631 30.3666 105.37 30.4336 105.116 30.5249" stroke="black" stroke-linecap="round" stroke-linejoin="round"/>
<path d="M99.6982 42.7977L101 34.5329L101.09 32.1787" stroke="black" stroke-linecap="round" stroke-linejoin="round"/>
</svg>
