<svg width="202" height="226" viewBox="0 0 202 226" fill="none" xmlns="http://www.w3.org/2000/svg">
<g clip-path="url(#clip0_1689_1260)">
<path d="M146.208 0H54.7923C34.7486 0 18.5 16.2486 18.5 36.2923V127.708C18.5 147.751 34.7486 164 54.7923 164H146.208C166.251 164 182.5 147.751 182.5 127.708V36.2923C182.5 16.2486 166.251 0 146.208 0Z" fill="#F4F4F4"/>
<path d="M29.7932 106.654C29.1945 113.562 32.7003 119.834 39.9978 120.9L70.7478 120.252L101.276 120.288L72.5801 107.834L43.676 97.0122C37.3809 95.8103 30.3147 100.613 29.7932 106.654Z" fill="#20D19E"/>
<path d="M34.129 77.6369C31.2173 83.6645 33.9703 92.7988 41.8392 96.3273L72.6028 107.775L101.28 120.288L77.8774 96.8534L52.6878 73.9995C45.9301 70.1717 37.0453 71.6049 34.129 77.6369Z" fill="#FF9B49"/>
<path d="M72.8885 39.3037C67.1331 40.8956 65.1511 48.2112 67.1421 54.7558L86.0321 88.667L101.276 120.288L95.9465 84.3583L88.3451 48.4017C86.3632 41.8571 78.4942 37.7526 72.8885 39.3037Z" fill="#EDF4F3"/>
<path d="M100.509 35.0315C92.0279 35.0315 88.4041 41.0409 88.4041 47.6399L95.2344 83.5829L100.509 119.526L105.784 83.5829L112.619 47.6218C112.619 41.0409 108.99 35.0315 100.509 35.0315Z" fill="#51E4E0"/>
<path d="M129.354 41.4082C122.742 38.6053 113.934 41.8617 111.929 48.4244L106.605 84.3584L101.276 120.292L116.515 88.6715L134.987 58.2844C136.978 51.7035 135.967 44.211 129.354 41.4082Z" fill="#0B99BD"/>
<path d="M152.058 54.7104C146.072 50.2249 138.538 53.4995 135.985 57.7083L117.467 88.0955L102.178 119.666L125.535 96.1866L151.337 73.6774C157.941 67.1465 157.415 58.7288 152.058 54.7104Z" fill="#FFB0B2"/>
<path d="M168.463 80.1315C166.422 74.6436 159.279 70.9473 151.881 74.5121L126.03 96.9714L102.627 120.406L129.164 107.035L161.088 97.4839C168.717 93.1435 170.291 85.0524 168.463 80.1315Z" fill="#FFCA6A"/>
<path d="M171.193 108.187C170.812 103.003 166.204 96.8488 158.562 97.9101L129.182 107.434L101.276 120.301L131.713 120.914H161.243C168.894 119.408 171.57 113.385 171.193 108.187Z" fill="#FFA99F"/>
<path d="M32.7638 117.077C32.7638 117.077 28.9088 108.886 33.2945 103.502C36.1019 100.055 38.9501 98.8355 44.1794 99.5475C49.4088 100.26 56.0849 102.142 56.0849 102.142L38.8504 96.3274L34.3875 97.7787L29.1718 104.183V110.36L30.4825 113.902L33.7662 118.469L32.7638 117.077Z" fill="white"/>
<path d="M35.0723 89.9278C35.0723 89.9278 31.7207 79.3512 39.0363 75.868C45.6988 72.6932 52.2297 75.4508 56.0848 78.5031L50.3838 72.3667L41.6713 71.6592L36.315 74.2444L32.6595 80.1903V86.3176L35.0723 89.9278Z" fill="white"/>
<path d="M111.671 53.6855L112.895 45.6216L110.46 38.696L103.684 34.8682L95.1482 36.4828L89.8781 41.5715L88.6898 47.5401L89.8781 54.9373L91.3249 58.933C91.3249 58.933 90.3679 49.8622 90.7307 47.9845C91.8147 42.3743 94.2185 37.7572 100.341 37.5032C106.464 37.2493 110.609 39.4308 111.82 48.4335" fill="white"/>
<path d="M112.619 52.1888C112.619 52.1888 113.489 55.409 114.256 51.9303C114.918 48.9596 116.787 46.4878 119 44.5966C120.116 43.6867 121.416 43.0311 122.811 42.6755C124.206 42.3199 125.662 42.2728 127.077 42.5375C128.892 42.8414 131.776 44.2156 133.581 47.5945C134.393 48.4653 133.699 44.2519 131.581 42.4922C126.397 38.179 118.918 41.4082 118.918 41.4082L113.022 47.2543L112.619 52.1888Z" fill="white"/>
<path d="M129.164 66.2169C129.164 66.2169 131.395 66.1352 138.094 58.4795C144.793 50.8237 154.462 59.1054 154.462 59.1054L150.956 53.545C150.956 53.545 146.262 51.9485 146.026 51.9712C145.79 51.9939 138.389 54.2933 138.389 54.2933L134.561 57.8627L129.164 66.2169Z" fill="white"/>
<path d="M146.044 78.0088C147.643 78.0405 149.226 77.6792 150.652 76.9566C152.92 75.7638 157.542 74.5347 160.136 75.6368C162.73 76.7389 165.919 78.2084 167.152 83.9729C168.028 88.0547 166.431 91.8826 166.431 91.8826L169.447 81.8049L166.685 75.9089C166.685 75.9089 159.243 72.1128 159.097 72.1128C158.952 72.1128 151.886 73.0879 151.886 73.0879L146.044 78.0088Z" fill="white"/>
<path d="M154.14 100.913C154.14 100.913 162.05 100.659 165.111 102.232C168.173 103.806 171.062 106.695 170.935 111.929C170.808 117.163 171.842 107.888 171.842 107.888L169.887 102.105L165.084 98.79L156.199 99.2436L154.14 100.913Z" fill="white"/>
<path d="M40.9593 97.3842C41.5586 97.3813 42.1565 97.4451 42.7417 97.5747L72.6254 107.784L101.321 120.234L70.7931 120.188H40.2699C37.2638 119.579 34.5891 117.88 32.7605 115.417C30.9319 112.955 30.0785 109.903 30.3646 106.85C30.8181 101.475 36.0973 97.4023 40.9638 97.4023M40.9638 95.1346C35.2356 95.1346 28.7182 99.7653 28.1059 106.655C27.3576 115.199 33.426 121.045 39.8163 122.388C39.9655 122.42 40.1174 122.436 40.2699 122.438L70.8022 122.469L101.33 122.501C101.852 122.503 102.359 122.324 102.765 121.996C103.171 121.667 103.451 121.208 103.558 120.696C103.664 120.185 103.591 119.653 103.351 119.189C103.11 118.725 102.717 118.359 102.237 118.152L73.5416 105.702L73.3738 105.639L43.4855 95.4294C43.4083 95.402 43.3296 95.3792 43.2496 95.3614C42.5049 95.1975 41.7445 95.1154 40.9819 95.1165L40.9638 95.1346Z" fill="black"/>
<path d="M43.3902 111.589C44.8931 111.589 46.1115 110.371 46.1115 108.868C46.1115 107.365 44.8931 106.146 43.3902 106.146C41.8873 106.146 40.669 107.365 40.669 108.868C40.669 110.371 41.8873 111.589 43.3902 111.589Z" fill="#182022"/>
<path d="M44.9141 72.317C47.7012 72.3437 50.4345 73.0871 52.8511 74.4759L77.9137 96.8036L101.316 120.233L72.639 107.725L42.6147 94.4089C34.7458 90.8804 32.0382 84.0183 34.9544 78.0089C36.7686 74.2627 40.6282 72.3397 44.9323 72.3397M44.9323 70.072C39.5216 70.072 35.0315 72.6708 32.9271 77.0248C32.1462 78.5974 31.6917 80.3119 31.5912 82.065C31.4906 83.818 31.746 85.5732 32.342 87.2249C33.7661 91.1389 37.0906 94.4316 41.7031 96.4998L71.7456 109.82L100.432 122.333C100.718 122.46 101.027 122.525 101.339 122.524C101.787 122.524 102.225 122.391 102.598 122.142C102.971 121.893 103.261 121.539 103.433 121.125C103.605 120.711 103.65 120.256 103.563 119.816C103.476 119.377 103.261 118.973 102.945 118.655L79.5419 95.2253L79.4467 95.1346L54.3614 72.7842C54.2433 72.6749 54.1123 72.5805 53.9713 72.503C51.2098 70.9169 48.0851 70.0716 44.9005 70.0493L44.9323 70.072Z" fill="black"/>
<path d="M46.1115 87.6419C47.6144 87.6419 48.8327 86.4236 48.8327 84.9207C48.8327 83.4178 47.6144 82.1995 46.1115 82.1995C44.6086 82.1995 43.3903 83.4178 43.3903 84.9207C43.3903 86.4236 44.6086 87.6419 46.1115 87.6419Z" fill="#182022"/>
<path d="M75.9363 39.7482C80.7393 39.7482 85.2928 43.6305 87.0027 49.2725L90.0641 84.0998L101.321 120.256L86.0774 88.6171L67.1875 54.7059C65.1965 48.1613 67.7998 41.6666 73.5371 40.0702C74.3112 39.8564 75.1105 39.7481 75.9136 39.7482M75.9136 37.4805C74.9064 37.4799 73.9038 37.6172 72.9339 37.8887C71.4493 38.3004 70.0632 39.008 68.8591 39.969C67.6549 40.93 66.6575 42.1245 65.9267 43.4808C64.0672 46.8597 63.7315 51.191 65.0196 55.3635C65.065 55.521 65.1274 55.6731 65.2055 55.8171L84.0637 89.6693L99.2755 121.227C99.4609 121.611 99.7512 121.936 100.113 122.163C100.475 122.39 100.894 122.511 101.321 122.51C101.605 122.511 101.887 122.457 102.151 122.351C102.683 122.141 103.116 121.738 103.363 121.223C103.61 120.707 103.653 120.117 103.484 119.571L92.2955 83.6463L89.2522 49.0503C89.2396 48.8961 89.2092 48.7439 89.1615 48.5967C87.1705 42.0522 81.728 37.485 75.9272 37.485L75.9136 37.4805Z" fill="black"/>
<path d="M100.509 35.7389C108.99 35.7389 111.367 41.1224 111.367 47.7214L104.732 83.9502L100.509 120.233L95.2344 84.2903L89.4246 47.8484C89.4246 41.2539 93.6379 35.7389 100.509 35.7389ZM100.509 33.4712C92.7989 33.4712 87.1569 39.5214 87.1569 47.8484C87.1582 47.9685 87.1688 48.0883 87.1886 48.2067L92.9939 84.635L98.2686 120.564C98.3479 121.102 98.6178 121.594 99.029 121.949C99.4403 122.304 99.9655 122.5 100.509 122.501H100.545C101.095 122.493 101.623 122.285 102.031 121.916C102.439 121.547 102.699 121.043 102.763 120.496L106.977 84.2858L113.598 48.1296C113.622 47.9948 113.634 47.8582 113.635 47.7214C113.635 35.9294 106.496 33.4712 100.509 33.4712Z" fill="black"/>
<path d="M100.509 51.971C102.012 51.971 103.23 50.7527 103.23 49.2498C103.23 47.7469 102.012 46.5286 100.509 46.5286C99.0062 46.5286 97.7878 47.7469 97.7878 49.2498C97.7878 50.7527 99.0062 51.971 100.509 51.971Z" fill="#182022"/>
<path d="M124.696 41.0997C126.091 41.1057 127.471 41.3943 128.751 41.9478C135.359 44.7507 135.055 51.9257 133.354 57.4362L114.809 86.6804L101.321 120.242L106.65 84.3129L114.197 49.2498C115.557 44.8867 119.748 41.0861 124.719 41.0861M124.719 38.8184C119.109 38.8184 113.775 42.9002 112.02 48.5695C112.02 48.633 111.984 48.6965 111.97 48.76L104.446 83.8141C104.446 83.8594 104.446 83.9093 104.423 83.9546L99.094 119.889C99.0125 120.438 99.1356 120.999 99.4399 121.463C99.7442 121.928 100.209 122.265 100.745 122.41C100.938 122.463 101.138 122.489 101.339 122.487C101.791 122.487 102.232 122.351 102.606 122.098C102.98 121.845 103.27 121.487 103.439 121.068L116.85 87.7054L135.282 58.638C135.39 58.4687 135.476 58.2857 135.536 58.0938C136.311 55.5812 137.092 51.8304 136.411 48.2384C136.096 46.3754 135.304 44.6254 134.114 43.1578C132.924 41.6903 131.375 40.5549 129.617 39.8615C128.057 39.1899 126.377 38.8398 124.678 38.832L124.719 38.8184Z" fill="black"/>
<path d="M124.356 55.2774C125.859 55.2774 127.077 54.0591 127.077 52.5562C127.077 51.0533 125.859 49.835 124.356 49.835C122.853 49.835 121.635 51.0533 121.635 52.5562C121.635 54.0591 122.853 55.2774 124.356 55.2774Z" fill="#182022"/>
<path d="M145.301 53.232C147.438 53.2475 149.511 53.9681 151.197 55.282C156.553 59.2959 156.857 66.2532 150.29 72.7841L124.71 96.7537L101.321 120.233L116.61 88.649L135.822 58.6926C137.55 55.8444 141.241 53.2502 145.301 53.2502M145.301 50.9825C140.171 50.9825 135.885 54.257 133.899 57.5089L114.7 87.4425C114.655 87.5196 114.61 87.5967 114.569 87.6784L99.28 119.263C99.0573 119.743 99.0093 120.285 99.1444 120.797C99.2794 121.308 99.589 121.756 100.019 122.063C100.45 122.371 100.974 122.518 101.502 122.479C102.029 122.441 102.527 122.219 102.908 121.853L126.247 98.4001L151.841 74.4396L151.886 74.3942C155.832 70.4847 157.782 66.2305 157.478 62.0624C157.247 58.7153 155.51 55.663 152.58 53.4452C150.504 51.8324 147.952 50.9521 145.323 50.9417L145.301 50.9825Z" fill="black"/>
<path d="M143.323 67.6319C144.826 67.6319 146.044 66.4136 146.044 64.9107C146.044 63.4078 144.826 62.1895 143.323 62.1895C141.82 62.1895 140.602 63.4078 140.602 64.9107C140.602 66.4136 141.82 67.6319 143.323 67.6319Z" fill="#182022"/>
<path d="M157.578 73.2738C159.671 73.251 161.719 73.8839 163.434 75.0835C165.15 76.2832 166.446 77.9896 167.143 79.9635C168.957 84.8799 167.402 92.971 159.787 97.316L127.077 106.781L101.321 120.233L125.989 98.2004L151.537 74.766C153.409 73.8204 155.471 73.3103 157.569 73.2738M157.569 71.0061C155.131 71.042 152.732 71.628 150.553 72.7205C150.353 72.8183 150.169 72.9435 150.004 73.0924L124.47 96.5177L99.8015 118.542C99.4585 118.848 99.2167 119.251 99.1081 119.698C98.9995 120.145 99.0294 120.614 99.1937 121.044C99.358 121.473 99.649 121.843 100.028 122.103C100.407 122.363 100.857 122.502 101.316 122.501C101.681 122.502 102.041 122.413 102.364 122.242L127.916 108.899L160.408 99.4929C160.58 99.4423 160.746 99.3723 160.902 99.2843C169.388 94.4405 171.542 85.3108 169.261 79.1744C168.409 76.763 166.823 74.6791 164.726 73.215C162.629 71.7508 160.126 70.98 157.569 71.0106V71.0061Z" fill="black"/>
<path d="M155.328 88.2271C156.831 88.2271 158.05 87.0088 158.05 85.5059C158.05 84.003 156.831 82.7847 155.328 82.7847C153.826 82.7847 152.607 84.003 152.607 85.5059C152.607 87.0088 153.826 88.2271 155.328 88.2271Z" fill="#182022"/>
<path d="M161.501 100.078C167.343 100.078 170.259 103.253 170.572 107.788C170.948 112.968 168.785 118.701 161.134 120.188L131.835 120.22L101.303 120.252L130.003 107.802L158.798 100.296C159.687 100.166 160.584 100.1 161.483 100.096M161.483 97.8286C160.48 97.8316 159.478 97.9059 158.485 98.0509C158.398 98.0609 158.311 98.0776 158.227 98.1007L129.431 105.607C129.318 105.637 129.208 105.675 129.1 105.72L100.4 118.17C99.9207 118.377 99.5273 118.743 99.2867 119.207C99.0461 119.671 98.9729 120.203 99.0796 120.715C99.1862 121.226 99.4661 121.685 99.872 122.014C100.278 122.343 100.785 122.521 101.307 122.519L131.835 122.488L161.134 122.456C161.286 122.457 161.438 122.444 161.587 122.415C165.669 121.617 168.871 119.603 170.794 116.596C172.437 113.907 173.159 110.757 172.853 107.621C172.4 101.489 168.164 97.8286 161.515 97.8286H161.483Z" fill="black"/>
<path d="M157.084 111.589C158.587 111.589 159.805 110.371 159.805 108.868C159.805 107.365 158.587 106.146 157.084 106.146C155.581 106.146 154.362 107.365 154.362 108.868C154.362 110.371 155.581 111.589 157.084 111.589Z" fill="#182022"/>
<path d="M60.0352 79.1972C60.0352 79.1972 34.5235 62.1033 66.6704 47.0503C89.9688 40.796 91.7421 65.7361 91.733 73.5869C91.7329 73.8754 91.7908 74.161 91.9033 74.4267C92.0159 74.6924 92.1808 74.9327 92.3881 75.1333C92.5955 75.3339 92.8411 75.4907 93.1104 75.5943C93.3797 75.698 93.667 75.7464 93.9554 75.7367C101.616 75.4963 125.934 76.6801 126.365 101.389C126.878 130.728 97.0259 138.384 81.7189 130.474C66.4119 122.565 61.3096 109.299 61.0556 100.881C60.8016 92.4632 60.0352 79.1972 60.0352 79.1972Z" fill="#FAF3E5"/>
<path d="M64.3755 113.698C64.3755 113.698 75.646 129.486 95.4204 129.486C115.195 129.486 124.982 115.086 124.982 115.086C124.982 115.086 120.859 125.839 109.652 130.987C106.532 132.42 99.0895 133.781 95.6743 133.708C79.9909 133.327 67.7544 124.878 64.3801 113.707" fill="#E9D5C4"/>
<path d="M58.0985 61.5091C58.0985 61.5091 56.8286 58.6609 55.0371 57.5543C59.1495 52.645 64.8243 49.2984 71.1106 48.0753C81.6327 46.0344 89.225 58.2164 90.9439 62.6158C90.9439 62.6158 88.5855 43.3313 71.1741 45.1908C53.7627 47.0503 49.9348 60.7653 49.9348 60.7653L53.3817 59.6814L58.0985 61.5091Z" fill="white"/>
<path d="M73.4101 46.0524C90.0595 46.0524 91.5516 66.3166 91.5516 73.4372C91.5529 74.0474 91.7961 74.6323 92.2281 75.0634C92.66 75.4945 93.2454 75.7366 93.8556 75.7366H93.9237C94.3318 75.7366 94.7854 75.7366 95.2843 75.7366C104.196 75.7366 125.785 78.1449 126.188 101.412C126.569 123.268 112.179 132.003 95.8784 132.003C94.672 132.003 93.4565 131.953 92.2501 131.862C78.8253 130.828 64.7973 119.839 61.6861 106.732C61.2284 104.82 60.9641 102.868 60.8969 100.904C60.6429 92.4858 62.5705 83.9321 59.8764 79.2198C57.577 75.1878 52.4973 70.2533 51.9213 63.9945C51.5767 60.2709 52.2071 56.1573 58.9421 51.3226C61.3371 49.6888 63.8698 48.2668 66.5117 47.0729C68.7607 46.4398 71.0829 46.1043 73.4191 46.0751M73.4191 43.8074C70.8825 43.8376 68.3606 44.199 65.9176 44.8823C65.785 44.9192 65.656 44.9677 65.5321 45.0274C62.7688 46.2806 60.1193 47.7708 57.6133 49.4812C49.9031 55.0053 49.2727 60.026 49.6582 64.2031C50.1117 69.319 53.164 73.5415 55.5995 76.9294C56.484 78.1585 57.3185 79.315 57.9035 80.3446C59.373 82.9161 59.119 87.6012 58.8469 92.5357C58.6972 95.257 58.5385 98.0916 58.6292 100.972C58.6959 103.09 58.9801 105.197 59.4773 107.258C61.0783 114.006 65.4096 120.515 71.6685 125.585C77.7958 130.551 85.0433 133.581 92.0778 134.121C93.3613 134.221 94.6448 134.27 95.8966 134.27C106.02 134.27 114.424 131.164 120.193 125.29C125.866 119.521 128.651 111.476 128.474 101.375C128.375 95.5427 126.996 90.4903 124.392 86.3676C122.069 82.7599 118.842 79.8234 115.031 77.8501C108.265 74.2218 100.577 73.4689 95.3206 73.4689C94.867 73.4689 94.3636 73.4689 93.901 73.4916C93.901 73.4916 93.8602 73.4916 93.8602 73.4598C93.8602 69.7363 93.452 62.5749 90.8487 56.2253C87.497 48.0979 81.4785 43.7983 73.4418 43.7983L73.4191 43.8074Z" fill="black"/>
<path d="M52.7604 70.6614C49.1684 70.6614 43.4447 69.2192 42.2745 68.244C42.1099 68.1043 41.9823 67.926 41.9032 67.725C41.8241 67.524 41.7958 67.3066 41.821 67.092C41.8754 66.5342 42.007 65.228 52.1708 59.7447C52.4016 59.6225 52.6666 59.581 52.9237 59.6268C57.3729 60.4749 58.3661 62.983 58.5702 64.4026C58.9059 66.8063 57.4545 69.328 55.9397 70.0899C54.9396 70.5224 53.8531 70.7179 52.7649 70.6614H52.7604Z" fill="#FAF3E5"/>
<path d="M52.6969 60.7426C59.8401 62.1032 57.3774 68.0899 55.4181 69.0741C54.5762 69.4185 53.6688 69.5734 52.7604 69.5276C49.0958 69.5276 43.7894 68.0309 43.0047 67.3733C41.9843 66.5252 52.6969 60.7426 52.6969 60.7426ZM52.6969 58.4749C52.3214 58.4741 51.9518 58.5677 51.622 58.747C51.5177 58.8014 49.1366 60.1076 46.6965 61.5544C41.6804 64.5704 40.8005 65.6363 40.6781 66.9969C40.6374 67.397 40.6955 67.801 40.8473 68.1735C40.9992 68.5459 41.24 68.8754 41.5489 69.133C43.0229 70.3621 49.0958 71.8135 52.7604 71.8135C54.0236 71.8702 55.2828 71.6326 56.4386 71.1196C58.3298 70.1671 60.0669 67.1874 59.6769 64.2666C59.4365 62.5431 58.2663 59.5135 53.1232 58.5338C52.9827 58.5068 52.84 58.4931 52.6969 58.493V58.4749Z" fill="black"/>
<path d="M68.1173 67.7136C70.562 67.7136 72.5438 65.2769 72.5438 62.2711C72.5438 59.2653 70.562 56.8286 68.1173 56.8286C65.6726 56.8286 63.6907 59.2653 63.6907 62.2711C63.6907 65.2769 65.6726 67.7136 68.1173 67.7136Z" fill="black"/>
<path d="M79.5147 71.4551C81.5812 71.4551 83.2564 69.7799 83.2564 67.7134C83.2564 65.6469 81.5812 63.9717 79.5147 63.9717C77.4482 63.9717 75.773 65.6469 75.773 67.7134C75.773 69.7799 77.4482 71.4551 79.5147 71.4551Z" fill="#FF7E72"/>
<path d="M67.9676 45.7758L63.024 36.4646" stroke="black" stroke-width="3" stroke-linecap="round" stroke-linejoin="round"/>
<path d="M61.6543 36.4193C63.5329 36.4193 65.0558 34.8964 65.0558 33.0178C65.0558 31.1391 63.5329 29.6162 61.6543 29.6162C59.7757 29.6162 58.2527 31.1391 58.2527 33.0178C58.2527 34.8964 59.7757 36.4193 61.6543 36.4193Z" fill="#08BBE6"/>
<path d="M61.6543 30.2964C62.1925 30.2964 62.7186 30.456 63.1662 30.755C63.6137 31.054 63.9624 31.479 64.1684 31.9763C64.3744 32.4735 64.4283 33.0207 64.3233 33.5485C64.2183 34.0764 63.9591 34.5613 63.5785 34.9419C63.1979 35.3224 62.7131 35.5816 62.1852 35.6866C61.6573 35.7916 61.1102 35.7377 60.6129 35.5317C60.1157 35.3258 59.6907 34.977 59.3917 34.5295C59.0927 34.082 58.9331 33.5559 58.9331 33.0177C58.9331 32.2959 59.2198 31.6038 59.7301 31.0934C60.2404 30.5831 60.9326 30.2964 61.6543 30.2964ZM61.6543 28.9358C60.847 28.9358 60.0578 29.1752 59.3865 29.6237C58.7153 30.0722 58.1921 30.7097 57.8832 31.4556C57.5742 32.2015 57.4934 33.0222 57.6509 33.814C57.8084 34.6058 58.1971 35.3331 58.768 35.904C59.3389 36.4748 60.0662 36.8636 60.858 37.0211C61.6498 37.1786 62.4705 37.0977 63.2164 36.7888C63.9622 36.4798 64.5997 35.9567 65.0483 35.2854C65.4968 34.6142 65.7362 33.825 65.7362 33.0177C65.7362 31.9351 65.3061 30.8968 64.5406 30.1313C63.7751 29.3658 62.7369 28.9358 61.6543 28.9358Z" fill="black"/>
<path d="M71.6912 45.168L71.859 36.6233" stroke="black" stroke-width="3" stroke-linecap="round" stroke-linejoin="round"/>
<path d="M71.6912 36.4193C73.5698 36.4193 75.0927 34.8964 75.0927 33.0178C75.0927 31.1391 73.5698 29.6162 71.6912 29.6162C69.8125 29.6162 68.2896 31.1391 68.2896 33.0178C68.2896 34.8964 69.8125 36.4193 71.6912 36.4193Z" fill="#08BBE6"/>
<path d="M71.6912 30.2964C72.2294 30.2964 72.7555 30.456 73.203 30.755C73.6505 31.054 73.9993 31.479 74.2053 31.9763C74.4112 32.4735 74.4651 33.0207 74.3601 33.5485C74.2551 34.0764 73.996 34.5613 73.6154 34.9419C73.2348 35.3224 72.7499 35.5816 72.2221 35.6866C71.6942 35.7916 71.147 35.7377 70.6498 35.5317C70.1526 35.3258 69.7276 34.977 69.4285 34.5295C69.1295 34.082 68.9699 33.5559 68.9699 33.0177C68.9699 32.2959 69.2566 31.6038 69.767 31.0934C70.2773 30.5831 70.9695 30.2964 71.6912 30.2964ZM71.6912 28.9358C70.8839 28.9358 70.0947 29.1752 69.4234 29.6237C68.7522 30.0722 68.229 30.7097 67.92 31.4556C67.6111 32.2015 67.5302 33.0222 67.6877 33.814C67.8452 34.6058 68.234 35.3331 68.8049 35.904C69.3757 36.4748 70.103 36.8636 70.8948 37.0211C71.6866 37.1786 72.5074 37.0977 73.2532 36.7888C73.9991 36.4798 74.6366 35.9567 75.0851 35.2854C75.5336 34.6142 75.773 33.825 75.773 33.0177C75.773 31.9351 75.343 30.8968 74.5775 30.1313C73.812 29.3658 72.7737 28.9358 71.6912 28.9358Z" fill="black"/>
<path d="M76.0633 45.4084L80.0907 36.4646" stroke="black" stroke-width="3" stroke-linecap="round" stroke-linejoin="round"/>
<path d="M81.27 36.4193C83.1486 36.4193 84.6715 34.8964 84.6715 33.0178C84.6715 31.1391 83.1486 29.6162 81.27 29.6162C79.3913 29.6162 77.8684 31.1391 77.8684 33.0178C77.8684 34.8964 79.3913 36.4193 81.27 36.4193Z" fill="#08BBE6"/>
<path d="M81.2699 30.2964C81.8081 30.2964 82.3342 30.456 82.7818 30.755C83.2293 31.054 83.578 31.479 83.784 31.9763C83.99 32.4735 84.0439 33.0207 83.9389 33.5485C83.8339 34.0764 83.5747 34.5613 83.1941 34.9419C82.8135 35.3224 82.3287 35.5816 81.8008 35.6866C81.2729 35.7916 80.7258 35.7377 80.2285 35.5317C79.7313 35.3258 79.3063 34.977 79.0073 34.5295C78.7083 34.082 78.5487 33.5559 78.5487 33.0177C78.5487 32.2959 78.8354 31.6038 79.3457 31.0934C79.856 30.5831 80.5482 30.2964 81.2699 30.2964ZM81.2699 28.9358C80.4626 28.9358 79.6734 29.1752 79.0022 29.6237C78.3309 30.0722 77.8077 30.7097 77.4988 31.4556C77.1898 32.2015 77.109 33.0222 77.2665 33.814C77.424 34.6058 77.8127 35.3331 78.3836 35.904C78.9545 36.4748 79.6818 36.8636 80.4736 37.0211C81.2654 37.1786 82.0861 37.0977 82.832 36.7888C83.5778 36.4798 84.2153 35.9567 84.6638 35.2854C85.1124 34.6142 85.3518 33.825 85.3518 33.0177C85.3518 31.9351 84.9217 30.8968 84.1562 30.1313C83.3907 29.3658 82.3525 28.9358 81.2699 28.9358Z" fill="black"/>
<path d="M83.2564 87.8689C83.2564 87.8689 77.6008 94.8852 84.998 102.922C92.3953 110.959 100.45 112.659 103.385 110.877C109.049 107.398 104.342 105.775 106.319 103.226C109.04 102.246 111.716 98.6314 109.081 95.9056C109.734 94.8692 110.042 93.6526 109.96 92.4303C109.879 91.2081 109.412 90.0431 108.627 89.1025C107.43 87.5786 103.525 86.7305 101.339 84.803" stroke="black" stroke-width="3" stroke-linecap="round" stroke-linejoin="round"/>
<path d="M100.137 89.8779C102.337 92.4949 101.498 99.0304 93.2796 95.6061C93.2796 95.6061 94.6402 98.2593 93.6289 100.396C92.8352 102.083 90.5675 103.448 85.0116 102.922" stroke="black" stroke-width="3" stroke-linecap="round" stroke-linejoin="round"/>
</g>
<g filter="url(#filter0_b_1689_1260)">
<path d="M15.876 216.888C15.8947 217.149 15.8573 217.336 15.764 217.448C15.6893 217.579 15.484 217.663 15.148 217.7C13.0013 217.98 11.0413 217.961 9.268 217.644C7.49467 217.327 5.98267 216.72 4.732 215.824C3.46267 214.947 2.47333 213.799 1.764 212.38C1.07333 210.943 0.728 209.244 0.728 207.284C0.728 205.94 0.905333 204.745 1.26 203.7C1.63333 202.655 2.14667 201.74 2.8 200.956C3.43467 200.191 4.18133 199.556 5.04 199.052C5.91733 198.529 6.86 198.119 7.868 197.82C8.876 197.54 9.93067 197.363 11.032 197.288C12.1333 197.213 13.2347 197.223 14.336 197.316C14.5973 197.353 14.784 197.419 14.896 197.512C15.0267 197.605 15.092 197.783 15.092 198.044L15.064 202.328C15.064 202.571 15.008 202.739 14.896 202.832C14.784 202.907 14.5973 202.935 14.336 202.916C13.1973 202.86 12.1893 202.907 11.312 203.056C10.4533 203.187 9.73467 203.439 9.156 203.812C8.55867 204.185 8.11067 204.699 7.812 205.352C7.51333 206.005 7.364 206.808 7.364 207.76C7.364 208.525 7.48533 209.216 7.728 209.832C7.98933 210.429 8.40933 210.924 8.988 211.316C9.548 211.708 10.2947 211.979 11.228 212.128C12.1613 212.259 13.3187 212.231 14.7 212.044C15.0173 212.007 15.2227 212.044 15.316 212.156C15.428 212.268 15.4933 212.427 15.512 212.632L15.876 216.888ZM27.2353 207.564C27.2353 205.94 26.9833 204.755 26.4793 204.008C25.9939 203.243 25.2846 202.86 24.3513 202.86C23.4179 202.86 22.6993 203.243 22.1953 204.008C21.7099 204.755 21.4673 205.94 21.4673 207.564C21.4673 209.188 21.7099 210.373 22.1953 211.12C22.6993 211.867 23.4179 212.24 24.3513 212.24C25.2846 212.24 25.9939 211.867 26.4793 211.12C26.9833 210.373 27.2353 209.188 27.2353 207.564ZM33.8153 207.564C33.8153 209.337 33.5539 210.887 33.0313 212.212C32.5086 213.519 31.8179 214.611 30.9593 215.488C30.0819 216.365 29.0646 217.019 27.9073 217.448C26.7686 217.896 25.5833 218.12 24.3513 218.12C23.1193 218.12 21.9246 217.896 20.7673 217.448C19.6286 217.019 18.6299 216.365 17.7713 215.488C16.8939 214.611 16.1939 213.509 15.6713 212.184C15.1486 210.859 14.8873 209.309 14.8873 207.536C14.8873 205.763 15.1486 204.223 15.6713 202.916C16.1939 201.591 16.8939 200.489 17.7713 199.612C18.6299 198.735 19.6286 198.081 20.7673 197.652C21.9246 197.204 23.1193 196.98 24.3513 196.98C25.5833 196.98 26.7686 197.204 27.9073 197.652C29.0646 198.081 30.0819 198.735 30.9593 199.612C31.8179 200.489 32.5086 201.591 33.0313 202.916C33.5539 204.241 33.8153 205.791 33.8153 207.564ZM47.3524 212.184C47.7444 212.184 48.0337 212.259 48.2204 212.408C48.407 212.557 48.5004 212.828 48.5004 213.22V216.776C48.5004 217.168 48.407 217.439 48.2204 217.588C48.0337 217.756 47.7444 217.84 47.3524 217.84H36.0684C35.583 217.84 35.247 217.728 35.0604 217.504C34.8924 217.299 34.799 216.916 34.7804 216.356L34.4724 198.716C34.4537 198.175 34.5377 197.801 34.7244 197.596C34.9297 197.372 35.275 197.26 35.7604 197.26H39.4004C39.8857 197.26 40.2124 197.372 40.3804 197.596C40.5484 197.801 40.6417 198.175 40.6604 198.716L40.9964 212.184H47.3524ZM59.736 207.564C59.736 205.94 59.484 204.755 58.98 204.008C58.4947 203.243 57.7854 202.86 56.852 202.86C55.9187 202.86 55.2 203.243 54.696 204.008C54.2107 204.755 53.968 205.94 53.968 207.564C53.968 209.188 54.2107 210.373 54.696 211.12C55.2 211.867 55.9187 212.24 56.852 212.24C57.7854 212.24 58.4947 211.867 58.98 211.12C59.484 210.373 59.736 209.188 59.736 207.564ZM66.316 207.564C66.316 209.337 66.0547 210.887 65.532 212.212C65.0094 213.519 64.3187 214.611 63.46 215.488C62.5827 216.365 61.5654 217.019 60.408 217.448C59.2694 217.896 58.084 218.12 56.852 218.12C55.62 218.12 54.4254 217.896 53.268 217.448C52.1294 217.019 51.1307 216.365 50.272 215.488C49.3947 214.611 48.6947 213.509 48.172 212.184C47.6494 210.859 47.388 209.309 47.388 207.536C47.388 205.763 47.6494 204.223 48.172 202.916C48.6947 201.591 49.3947 200.489 50.272 199.612C51.1307 198.735 52.1294 198.081 53.268 197.652C54.4254 197.204 55.62 196.98 56.852 196.98C58.084 196.98 59.2694 197.204 60.408 197.652C61.5654 198.081 62.5827 198.735 63.46 199.612C64.3187 200.489 65.0094 201.591 65.532 202.916C66.0547 204.241 66.316 205.791 66.316 207.564ZM73.1052 206.724C74.2812 206.649 75.1118 206.435 75.5972 206.08C76.0825 205.725 76.3252 205.128 76.3252 204.288C76.3252 203.821 76.2318 203.439 76.0452 203.14C75.8772 202.823 75.6438 202.58 75.3452 202.412C75.0465 202.263 74.6918 202.179 74.2812 202.16C73.8892 202.141 73.4692 202.169 73.0212 202.244L73.1052 206.724ZM66.7212 199.64C66.7025 199.267 66.6932 198.968 66.6932 198.744C66.7118 198.501 66.7678 198.305 66.8612 198.156C66.9358 198.025 67.0758 197.923 67.2812 197.848C67.5052 197.755 67.8132 197.652 68.2052 197.54C69.0078 197.335 69.9038 197.176 70.8932 197.064C71.9012 196.952 72.9185 196.924 73.9452 196.98C74.9718 197.036 75.9705 197.204 76.9412 197.484C77.9118 197.745 78.7798 198.137 79.5452 198.66C80.2918 199.201 80.8892 199.892 81.3372 200.732C81.8038 201.572 82.0372 202.599 82.0372 203.812C82.0372 204.745 81.9438 205.567 81.7572 206.276C81.5705 206.967 81.3185 207.573 81.0012 208.096C80.6652 208.619 80.2825 209.076 79.8532 209.468C79.4238 209.86 78.9572 210.205 78.4532 210.504L81.2252 214.872C81.5052 215.339 81.5798 215.712 81.4492 215.992C81.3185 216.253 81.0852 216.449 80.7492 216.58L77.8092 217.672C77.2865 217.877 76.8945 217.905 76.6332 217.756C76.3905 217.625 76.1758 217.401 75.9892 217.084L73.2452 212.1V216.58C73.2452 217.065 73.1705 217.392 73.0212 217.56C72.8718 217.747 72.5918 217.84 72.1812 217.84H68.3732C67.9812 217.84 67.7105 217.747 67.5612 217.56C67.4118 217.392 67.3278 217.065 67.3092 216.58L66.7212 199.64ZM99.0161 204.12C99.0161 203.691 98.9134 203.336 98.7081 203.056C98.5214 202.757 98.2694 202.533 97.9521 202.384C97.6161 202.235 97.2241 202.151 96.7761 202.132C96.3468 202.113 95.8988 202.151 95.4321 202.244L95.5161 206.724C97.8494 206.612 99.0161 205.744 99.0161 204.12ZM89.1321 199.64C89.1134 199.267 89.1041 198.968 89.1041 198.744C89.1228 198.501 89.1788 198.305 89.2721 198.156C89.3468 198.025 89.4868 197.923 89.6921 197.848C89.9161 197.755 90.2241 197.652 90.6161 197.54C91.4001 197.335 92.2961 197.176 93.3041 197.064C94.3308 196.952 95.3761 196.924 96.4401 196.98C97.5041 197.036 98.5401 197.195 99.5481 197.456C100.575 197.717 101.489 198.109 102.292 198.632C103.095 199.155 103.739 199.827 104.224 200.648C104.709 201.451 104.952 202.44 104.952 203.616C104.952 205.184 104.691 206.491 104.168 207.536C103.645 208.581 102.955 209.421 102.096 210.056C101.219 210.691 100.211 211.148 99.0721 211.428C97.9521 211.708 96.7854 211.876 95.5721 211.932L95.6561 216.58C95.6748 217.065 95.6001 217.392 95.4321 217.56C95.2828 217.747 95.0028 217.84 94.5921 217.84H90.7841C90.3921 217.84 90.1214 217.747 89.9721 217.56C89.8228 217.392 89.7388 217.065 89.7201 216.58L89.1321 199.64ZM111.43 210.224L111.486 212.184H116.862C117.254 212.184 117.543 212.268 117.73 212.436C117.917 212.585 118.01 212.847 118.01 213.22V216.776C118.01 217.168 117.917 217.439 117.73 217.588C117.543 217.756 117.254 217.84 116.862 217.84H106.642C106.157 217.84 105.83 217.728 105.662 217.504C105.494 217.299 105.401 216.916 105.382 216.356L105.13 198.716C105.111 198.175 105.195 197.801 105.382 197.596C105.587 197.372 105.933 197.26 106.418 197.26H117.758C118.15 197.26 118.439 197.335 118.626 197.484C118.813 197.633 118.906 197.904 118.906 198.296V201.88C118.906 202.253 118.813 202.524 118.626 202.692C118.439 202.841 118.15 202.916 117.758 202.916H111.29L111.318 204.568H116.778C117.17 204.568 117.459 204.643 117.646 204.792C117.833 204.941 117.926 205.212 117.926 205.604V209.188C117.926 209.58 117.833 209.851 117.646 210C117.459 210.149 117.17 210.224 116.778 210.224H111.43ZM119.419 217.084C119.101 216.991 118.887 216.86 118.775 216.692C118.663 216.505 118.672 216.216 118.803 215.824L124.599 198.52C124.748 198.053 124.925 197.727 125.131 197.54C125.336 197.353 125.663 197.26 126.111 197.26H130.171C130.619 197.26 130.945 197.353 131.151 197.54C131.356 197.727 131.533 198.053 131.683 198.52L137.479 215.824C137.609 216.216 137.619 216.505 137.507 216.692C137.395 216.86 137.18 216.991 136.863 217.084L133.391 218.092C132.849 218.241 132.485 218.027 132.299 217.448L131.431 214.648H124.823L123.983 217.448C123.796 218.027 123.432 218.241 122.891 218.092L119.419 217.084ZM128.127 203.7L126.447 209.272H129.807L128.127 203.7ZM151.315 216.888C151.334 217.149 151.296 217.336 151.203 217.448C151.128 217.579 150.923 217.663 150.587 217.7C148.44 217.98 146.48 217.961 144.707 217.644C142.934 217.327 141.422 216.72 140.171 215.824C138.902 214.947 137.912 213.799 137.203 212.38C136.512 210.943 136.167 209.244 136.167 207.284C136.167 205.94 136.344 204.745 136.699 203.7C137.072 202.655 137.586 201.74 138.239 200.956C138.874 200.191 139.62 199.556 140.479 199.052C141.356 198.529 142.299 198.119 143.307 197.82C144.315 197.54 145.37 197.363 146.471 197.288C147.572 197.213 148.674 197.223 149.775 197.316C150.036 197.353 150.223 197.419 150.335 197.512C150.466 197.605 150.531 197.783 150.531 198.044L150.503 202.328C150.503 202.571 150.447 202.739 150.335 202.832C150.223 202.907 150.036 202.935 149.775 202.916C148.636 202.86 147.628 202.907 146.751 203.056C145.892 203.187 145.174 203.439 144.595 203.812C143.998 204.185 143.55 204.699 143.251 205.352C142.952 206.005 142.803 206.808 142.803 207.76C142.803 208.525 142.924 209.216 143.167 209.832C143.428 210.429 143.848 210.924 144.427 211.316C144.987 211.708 145.734 211.979 146.667 212.128C147.6 212.259 148.758 212.231 150.139 212.044C150.456 212.007 150.662 212.044 150.755 212.156C150.867 212.268 150.932 212.427 150.951 212.632L151.315 216.888ZM162.674 207.564C162.674 205.94 162.422 204.755 161.918 204.008C161.433 203.243 160.724 202.86 159.79 202.86C158.857 202.86 158.138 203.243 157.634 204.008C157.149 204.755 156.906 205.94 156.906 207.564C156.906 209.188 157.149 210.373 157.634 211.12C158.138 211.867 158.857 212.24 159.79 212.24C160.724 212.24 161.433 211.867 161.918 211.12C162.422 210.373 162.674 209.188 162.674 207.564ZM169.254 207.564C169.254 209.337 168.993 210.887 168.47 212.212C167.948 213.519 167.257 214.611 166.398 215.488C165.521 216.365 164.504 217.019 163.346 217.448C162.208 217.896 161.022 218.12 159.79 218.12C158.558 218.12 157.364 217.896 156.206 217.448C155.068 217.019 154.069 216.365 153.21 215.488C152.333 214.611 151.633 213.509 151.11 212.184C150.588 210.859 150.326 209.309 150.326 207.536C150.326 205.763 150.588 204.223 151.11 202.916C151.633 201.591 152.333 200.489 153.21 199.612C154.069 198.735 155.068 198.081 156.206 197.652C157.364 197.204 158.558 196.98 159.79 196.98C161.022 196.98 162.208 197.204 163.346 197.652C164.504 198.081 165.521 198.735 166.398 199.612C167.257 200.489 167.948 201.591 168.47 202.916C168.993 204.241 169.254 205.791 169.254 207.564ZM184.773 216.888C184.792 217.149 184.754 217.336 184.661 217.448C184.586 217.579 184.381 217.663 184.045 217.7C181.898 217.98 179.938 217.961 178.165 217.644C176.392 217.327 174.88 216.72 173.629 215.824C172.36 214.947 171.37 213.799 170.661 212.38C169.97 210.943 169.625 209.244 169.625 207.284C169.625 205.94 169.802 204.745 170.157 203.7C170.53 202.655 171.044 201.74 171.697 200.956C172.332 200.191 173.078 199.556 173.937 199.052C174.814 198.529 175.757 198.119 176.765 197.82C177.773 197.54 178.828 197.363 179.929 197.288C181.03 197.213 182.132 197.223 183.233 197.316C183.494 197.353 183.681 197.419 183.793 197.512C183.924 197.605 183.989 197.783 183.989 198.044L183.961 202.328C183.961 202.571 183.905 202.739 183.793 202.832C183.681 202.907 183.494 202.935 183.233 202.916C182.094 202.86 181.086 202.907 180.209 203.056C179.35 203.187 178.632 203.439 178.053 203.812C177.456 204.185 177.008 204.699 176.709 205.352C176.41 206.005 176.261 206.808 176.261 207.76C176.261 208.525 176.382 209.216 176.625 209.832C176.886 210.429 177.306 210.924 177.885 211.316C178.445 211.708 179.192 211.979 180.125 212.128C181.058 212.259 182.216 212.231 183.597 212.044C183.914 212.007 184.12 212.044 184.213 212.156C184.325 212.268 184.39 212.427 184.409 212.632L184.773 216.888ZM185.164 198.52C185.164 198.035 185.238 197.708 185.388 197.54C185.556 197.353 185.836 197.26 186.228 197.26H190.26C190.67 197.26 190.941 197.353 191.072 197.54C191.221 197.708 191.305 198.035 191.324 198.52L191.38 203.252L195.916 197.596C196.364 197.036 196.858 196.952 197.4 197.344L200.144 199.444C200.554 199.761 200.778 200.041 200.816 200.284C200.853 200.508 200.75 200.769 200.508 201.068L196.056 206.584L200.844 214.9C201.086 215.329 201.17 215.665 201.096 215.908C201.04 216.132 200.816 216.328 200.424 216.496L197.148 217.812C196.774 217.961 196.466 218.008 196.224 217.952C195.981 217.915 195.766 217.737 195.58 217.42L191.492 210.364L191.604 216.58C191.622 217.065 191.548 217.392 191.38 217.56C191.23 217.747 190.95 217.84 190.54 217.84H186.508C186.116 217.84 185.845 217.747 185.696 217.56C185.546 217.392 185.462 217.065 185.444 216.58L185.164 198.52Z" fill="white"/>
</g>
<defs>
<filter id="filter0_b_1689_1260" x="-37.672" y="158.356" width="277.28" height="98.3598" filterUnits="userSpaceOnUse" color-interpolation-filters="sRGB">
<feFlood flood-opacity="0" result="BackgroundImageFix"/>
<feGaussianBlur in="BackgroundImageFix" stdDeviation="19.2"/>
<feComposite in2="SourceAlpha" operator="in" result="effect1_backgroundBlur_1689_1260"/>
<feBlend mode="normal" in="SourceGraphic" in2="effect1_backgroundBlur_1689_1260" result="shape"/>
</filter>
<clipPath id="clip0_1689_1260">
<rect width="164" height="164" fill="white" transform="translate(18.5)"/>
</clipPath>
</defs>
</svg>
