<svg xmlns="http://www.w3.org/2000/svg" width="48" height="48" viewBox="0 0 48 48" fill="none">
<path d="M22.5556 10C16.174 10 11 14.963 11 21.0866C11 23.1768 11.6023 25.1326 12.651 26.8M27.6111 22.6V25.4M31.9444 22.6V25.4M27.6111 11.4V14.2M31.9444 11.4V14.2M25.4444 16.3H22.5556M25.4444 20.5H22.5556M37 16.3H34.1111M37 20.5H34.1111M26.8889 33.8L26.7011 34.7058C26.4989 35.6956 26.3963 36.1898 26.1667 36.5818C25.8128 37.186 25.2398 37.6411 24.559 37.8586C24.1184 38 23.5956 38 22.5556 38C21.5156 38 20.9927 38 20.5521 37.86C19.8711 37.6421 19.2981 37.1865 18.9444 36.5818C18.7148 36.1898 18.6122 35.6956 18.41 34.7058L18.2222 33.8M31.2222 14.2H28.3333C26.9712 14.2 26.2909 14.2 25.8677 14.6102C25.4444 15.0204 25.4444 15.6798 25.4444 17V19.8C25.4444 21.1202 25.4444 21.7796 25.8677 22.1898C26.2909 22.6 26.9712 22.6 28.3333 22.6H31.2222C32.5843 22.6 33.2647 22.6 33.6879 22.1898C34.1111 21.7796 34.1111 21.1202 34.1111 19.8V17C34.1111 15.6798 34.1111 15.0204 33.6879 14.6102C33.2647 14.2 32.5843 14.2 31.2222 14.2ZM15.8866 31.1372C15.7537 30.7508 15.6872 30.5562 15.6944 30.3994C15.7026 30.2373 15.7591 30.0809 15.857 29.9492C15.9549 29.8175 16.0901 29.7162 16.2462 29.6574C16.3964 29.6 16.6073 29.6 17.0262 29.6H28.0849C28.5052 29.6 28.7147 29.6 28.8649 29.656C29.0212 29.7149 29.1566 29.8165 29.2545 29.9484C29.3524 30.0804 29.4088 30.237 29.4167 30.3994C29.4239 30.5562 29.3574 30.7494 29.2246 31.1372C28.979 31.8526 28.8562 32.211 28.667 32.5008C28.2712 33.1065 27.6508 33.5419 26.9337 33.7174C26.5899 33.8 26.2028 33.8 25.4271 33.8H19.684C18.9083 33.8 18.5198 33.8 18.1774 33.716C17.4605 33.5408 16.8402 33.1059 16.4441 32.5008C16.2549 32.211 16.1321 31.8526 15.8866 31.1372Z" stroke="currentColor" stroke-width="2" stroke-linecap="round" stroke-linejoin="round"/>
</svg>