<svg width="48" height="48" viewBox="0 0 48 48" fill="none" xmlns="http://www.w3.org/2000/svg">
<path d="M22.57 18.46H39.03C38.1567 16.1093 36.7627 14.032 34.848 12.228C32.9347 10.4253 30.752 9.216 28.3 8.6L22.57 18.46ZM18.43 22.46L26.74 8.2C26.3733 8.13333 25.9173 8.08333 25.372 8.05C24.8267 8.01667 24.3693 8 24 8C21.8 8 19.75 8.41667 17.85 9.25C15.95 10.0833 14.2667 11.2 12.8 12.6L18.43 22.46ZM8.50001 28H19.86L11.71 13.816C10.5393 15.2587 9.62868 16.8307 8.97801 18.532C8.32734 20.2333 8.00134 22.056 8.00001 24C8.00001 24.7 8.04201 25.3753 8.12601 26.026C8.21001 26.6767 8.33468 27.3347 8.50001 28ZM19.778 39.4L25.484 29.54H8.96801C9.84268 31.8907 11.25 33.968 13.19 35.772C15.13 37.576 17.3267 38.7853 19.78 39.4M24 40C26.2 40 28.25 39.5833 30.15 38.75C32.05 37.9167 33.7333 36.8 35.2 35.4L29.57 25.54L21.338 39.724C21.7047 39.816 22.14 39.8853 22.644 39.932C23.148 39.9787 23.6 40.0013 24 40ZM36.292 34.184C37.3587 32.8173 38.2433 31.2453 38.946 29.468C39.6487 27.6907 40 25.868 40 24C40 23.3 39.9587 22.6253 39.876 21.976C39.7933 21.3267 39.668 20.668 39.5 20H28.14L36.292 34.184ZM24 42C21.5227 42 19.1893 41.5267 17 40.58C14.8107 39.632 12.904 38.3453 11.28 36.72C9.65601 35.0947 8.36934 33.188 7.42001 31C6.47068 28.812 5.99734 26.4787 6.00001 24C6.00001 21.5147 6.47334 19.1793 7.42001 16.994C8.36801 14.8073 9.65468 12.9027 11.28 11.28C12.9053 9.65733 14.812 8.37067 17 7.42C19.1893 6.47333 21.5227 6 24 6C26.4853 6 28.8207 6.47333 31.006 7.42C33.1927 8.368 35.098 9.65467 36.722 11.28C38.346 12.9053 39.632 14.81 40.58 16.994C41.5267 19.1807 42 21.516 42 24C42 26.4773 41.5267 28.8107 40.58 31C39.632 33.1893 38.3453 35.096 36.72 36.72C35.0947 38.344 33.19 39.6307 31.006 40.58C28.822 41.5293 26.4867 42.0027 24 42Z" fill="currentColor"/>
</svg>
