<svg xmlns="http://www.w3.org/2000/svg" width="48" height="48" viewBox="0 0 48 48" fill="none">
<path d="M22.9672 19.9989H34.855C34.2243 18.3012 33.2175 16.8009 31.8347 15.498C30.4528 14.1961 28.8764 13.3227 27.1056 12.8778L22.9672 19.9989ZM19.9772 22.8878L25.9789 12.5889C25.7141 12.5407 25.3847 12.5046 24.9909 12.4806C24.597 12.4565 24.2667 12.4444 24 12.4444C22.4111 12.4444 20.9306 12.7454 19.5583 13.3472C18.1861 13.9491 16.9704 14.7556 15.9111 15.7667L19.9772 22.8878ZM12.8056 26.8889H21.01L15.1239 16.6449C14.2784 17.6868 13.6207 18.8221 13.1508 20.0509C12.6809 21.2796 12.4454 22.596 12.4445 24C12.4445 24.5056 12.4748 24.9933 12.5355 25.4632C12.5961 25.9331 12.6862 26.4084 12.8056 26.8889ZM20.9508 35.1222L25.0718 28.0011H13.1436C13.7753 29.6988 14.7917 31.1991 16.1928 32.502C17.5939 33.8049 19.1804 34.6783 20.9522 35.1222M24 35.5555C25.5889 35.5555 27.0694 35.2546 28.4417 34.6528C29.8139 34.0509 31.0296 33.2444 32.0889 32.2333L28.0228 25.1122L22.0774 35.3562C22.3423 35.4227 22.6567 35.4727 23.0207 35.5064C23.3847 35.5401 23.7111 35.5565 24 35.5555ZM32.8776 31.3551C33.6479 30.3681 34.2869 29.2327 34.7943 27.9491C35.3018 26.6655 35.5556 25.3491 35.5556 24C35.5556 23.4944 35.5257 23.0072 35.466 22.5382C35.4063 22.0693 35.3158 21.5936 35.1944 21.1111H26.99L32.8776 31.3551ZM24 37C22.2108 37 20.5256 36.6581 18.9444 35.9744C17.3633 35.2898 15.9862 34.3605 14.8133 33.1867C13.6405 32.0128 12.7112 30.6358 12.0256 29.0555C11.3399 27.4753 10.9981 25.7901 11 24C11 22.205 11.3419 20.5184 12.0256 18.9401C12.7102 17.3608 13.6395 15.9853 14.8133 14.8133C15.9872 13.6414 17.3642 12.7121 18.9444 12.0256C20.5256 11.3419 22.2108 11 24 11C25.795 11 27.4816 11.3419 29.0599 12.0256C30.6392 12.7102 32.0152 13.6395 33.1881 14.8133C34.361 15.9872 35.2898 17.3628 35.9744 18.9401C36.6581 20.5194 37 22.206 37 24C37 25.7892 36.6581 27.4744 35.9744 29.0555C35.2898 30.6367 34.3605 32.0138 33.1867 33.1867C32.0128 34.3595 30.6372 35.2888 29.0599 35.9744C27.4826 36.6601 25.7959 37.0019 24 37Z" fill="currentColor"/>
</svg>