<svg xmlns="http://www.w3.org/2000/svg" width="48" height="48" viewBox="0 0 48 48" fill="none">
<path d="M27 20C27 19.4696 27.2107 18.9609 27.5858 18.5858C27.9609 18.2107 28.4696 18 29 18C29.5304 18 30.0391 18.2107 30.4142 18.5858C30.7893 18.9609 31 19.4696 31 20C31 20.5304 30.7893 21.0391 30.4142 21.4142C30.0391 21.7893 29.5304 22 29 22C28.4696 22 27.9609 21.7893 27.5858 21.4142C27.2107 21.0391 27 20.5304 27 20Z" fill="currentColor"/>
<path fill-rule="evenodd" clip-rule="evenodd" d="M17.4656 14.2718C21.8141 13.9094 26.1872 13.9094 30.5358 14.2718L32.6209 14.4467C33.5902 14.5281 34.5027 14.92 35.2118 15.5593C35.9209 16.1986 36.3852 17.0482 36.5303 17.9714C37.1566 21.9683 37.1566 26.0325 36.5303 30.0294C36.3852 30.9526 35.9209 31.8022 35.2118 32.4415C34.5027 33.0808 33.5902 33.4727 32.6209 33.5541L30.5358 33.7277C26.186 34.0908 21.814 34.0908 17.4656 33.7277L15.3804 33.5541C14.4109 33.473 13.4981 33.0812 12.7887 32.4419C12.0794 31.8025 11.6148 30.9528 11.4697 30.0294C10.8434 26.0325 10.8434 21.9683 11.4697 17.9714C11.6148 17.0482 12.0791 16.1986 12.7882 15.5593C13.4973 14.92 14.4098 14.5281 15.3791 14.4467L17.4656 14.2718ZM30.3563 16.2528C26.1268 15.8989 21.8732 15.8989 17.6437 16.2528L15.5586 16.4263C15.053 16.4692 14.5771 16.6739 14.2072 17.0074C13.8374 17.3409 13.595 17.784 13.519 18.2655C13.1632 20.5322 13.0195 22.8249 13.0895 25.1161L18.435 19.9855C18.5348 19.8899 18.6538 19.8149 18.7849 19.765C18.9159 19.7151 19.0562 19.6914 19.1971 19.6954C19.338 19.6994 19.4766 19.7309 19.6044 19.7881C19.7321 19.8452 19.8464 19.9268 19.9402 20.0279L25.0108 25.5004L28.5045 24.382C28.696 24.3205 28.9021 24.3141 29.0974 24.3635C29.2927 24.4129 29.4687 24.5161 29.6037 24.6603L34.4631 29.8413L34.4824 29.7353C35.0783 25.9334 35.0783 22.0674 34.4824 18.2655C34.4063 17.7838 34.1637 17.3406 33.7936 17.007C33.4235 16.6735 32.9472 16.469 32.4414 16.4263L30.3563 16.2528ZM33.1415 31.4049L28.5169 26.4743L25.0177 27.5927C24.8254 27.6543 24.6185 27.6604 24.4226 27.6102C24.2267 27.56 24.0505 27.4558 23.9158 27.3104L19.1227 22.136L13.2621 27.7583C13.3293 28.4191 13.4145 29.0776 13.5176 29.734C13.5934 30.2159 13.8359 30.6595 14.206 30.9933C14.5762 31.3271 15.0526 31.5318 15.5586 31.5745L17.6437 31.7481C21.8734 32.1005 26.1266 32.1005 30.3563 31.7481L32.4414 31.5745C32.6872 31.5533 32.9247 31.495 33.1415 31.4049Z" fill="currentColor"/>
</svg>