<svg width="48" height="48" viewBox="0 0 48 48" fill="none" xmlns="http://www.w3.org/2000/svg">
<path d="M28 18C28 17.2044 28.3161 16.4413 28.8787 15.8787C29.4413 15.3161 30.2044 15 31 15C31.7956 15 32.5587 15.3161 33.1213 15.8787C33.6839 16.4413 34 17.2044 34 18C34 18.7956 33.6839 19.5587 33.1213 20.1213C32.5587 20.6839 31.7956 21 31 21C30.2044 21 29.4413 20.6839 28.8787 20.1213C28.3161 19.5587 28 18.7956 28 18Z" fill="currentColor"/>
<path fill-rule="evenodd" clip-rule="evenodd" d="M14.536 9.41021C20.8341 8.86326 27.1678 8.86326 33.466 9.41021L36.486 9.67421C37.8898 9.79714 39.2114 10.3886 40.2384 11.3536C41.2653 12.3185 41.9379 13.6008 42.148 14.9942C43.0551 21.027 43.0551 27.1615 42.148 33.1942C41.9379 34.5876 41.2653 35.8699 40.2384 36.8349C39.2114 37.7998 37.8898 38.3913 36.486 38.5142L33.466 38.7762C27.166 39.3242 20.834 39.3242 14.536 38.7762L11.516 38.5142C10.1118 38.3917 8.7897 37.8004 7.76233 36.8354C6.73497 35.8705 6.06209 34.5879 5.85196 33.1942C4.94485 27.1615 4.94485 21.027 5.85196 14.9942C6.06201 13.6008 6.73459 12.3185 7.76155 11.3536C8.78852 10.3886 10.1102 9.79714 11.514 9.67421L14.536 9.41021ZM33.206 12.4002C27.0802 11.8662 20.9197 11.8662 14.794 12.4002L11.774 12.6622C11.0417 12.727 10.3525 13.0358 9.81679 13.5392C9.28111 14.0427 8.93006 14.7114 8.81996 15.4382C8.30465 18.8594 8.09648 22.3199 8.19796 25.7782L15.94 18.0342C16.0845 17.89 16.2569 17.7767 16.4467 17.7014C16.6365 17.6262 16.8397 17.5904 17.0438 17.5964C17.2479 17.6024 17.4486 17.65 17.6336 17.7363C17.8187 17.8226 17.9842 17.9457 18.12 18.0982L25.464 26.3582L30.524 24.6702C30.8014 24.5774 31.0999 24.5676 31.3827 24.6423C31.6656 24.7169 31.9205 24.8726 32.116 25.0902L39.154 32.9102L39.182 32.7502C40.045 27.0118 40.045 21.1766 39.182 15.4382C39.0718 14.7111 38.7204 14.0421 38.1844 13.5387C37.6483 13.0352 36.9586 12.7266 36.226 12.6622L33.206 12.4002ZM37.24 35.2702L30.542 27.8282L25.474 29.5162C25.1954 29.6092 24.8957 29.6184 24.612 29.5427C24.3283 29.467 24.0731 29.3096 23.878 29.0902L16.936 21.2802L8.44796 29.7662C8.5453 30.7635 8.66863 31.7575 8.81796 32.7482C8.92774 33.4757 9.2789 34.1451 9.81502 34.649C10.3511 35.1528 11.0411 35.4618 11.774 35.5262L14.794 35.7882C20.92 36.3202 27.08 36.3202 33.206 35.7882L36.226 35.5262C36.582 35.4942 36.926 35.4062 37.24 35.2702Z" fill="currentColor"/>
</svg>
