<svg width="38" height="34" viewBox="0 0 38 34" fill="none" xmlns="http://www.w3.org/2000/svg">
<path d="M19 7.5C18.0717 7.5 17.1815 7.96094 16.5251 8.78141C15.8687 9.60188 15.5 10.7147 15.5 11.875H17.5C17.5 11.3777 17.658 10.9008 17.9393 10.5492C18.2206 10.1975 18.6022 10 19 10C19.3978 10 19.7794 10.1975 20.0607 10.5492C20.342 10.9008 20.5 11.3777 20.5 11.875C20.5 12.3723 20.342 12.8492 20.0607 13.2008C19.7794 13.5525 19.3978 13.75 19 13.75C18.45 13.75 18 14.3125 18 15V17.1875L9.4 25.25C9.23209 25.4074 9.10807 25.6269 9.04549 25.8773C8.98291 26.1277 8.98495 26.3964 9.05132 26.6453C9.11769 26.8942 9.24502 27.1107 9.41529 27.2641C9.58556 27.4175 9.79012 27.5 10 27.5H28C28.2099 27.5 28.4144 27.4175 28.5847 27.2641C28.755 27.1107 28.8823 26.8942 28.9487 26.6453C29.0151 26.3964 29.0171 26.1277 28.9545 25.8773C28.8919 25.6269 28.7679 25.4074 28.6 25.25L20 17.1875V16.0625C20.7216 15.7936 21.3546 15.2409 21.805 14.4865C22.2554 13.7321 22.4991 12.8163 22.5 11.875C22.5 10.7147 22.1313 9.60188 21.4749 8.78141C20.8185 7.96094 19.9283 7.5 19 7.5ZM19 19.375L25 25H13L19 19.375Z" fill="#873EF1"/>
</svg>
