<svg width="48" height="48" viewBox="-10 0 40 25" fill="none" xmlns="http://www.w3.org/2000/svg">
<path d="M13 24.3337C11.5194 24.3337 10.1201 24.0491 8.80204 23.48C7.48399 22.9109 6.33313 22.1345 5.34946 21.1508C4.36579 20.1672 3.5894 19.0163 3.02029 17.6982C2.45118 16.3802 2.16663 14.9809 2.16663 13.5003C2.16663 12.0017 2.46021 10.5934 3.04738 9.27533C3.63454 7.95727 4.42899 6.81074 5.43071 5.83574C6.43243 4.86074 7.60135 4.08905 8.93746 3.52066C10.2736 2.95227 11.7 2.66771 13.2166 2.66699C14.6611 2.66699 16.0243 2.91544 17.3062 3.41233C18.5882 3.90921 19.7123 4.59533 20.6786 5.47066C21.645 6.34599 22.4123 7.38419 22.9807 8.58524C23.5491 9.7863 23.8333 11.0816 23.8333 12.4712C23.8333 14.5475 23.2013 16.1411 21.9375 17.2519C20.6736 18.3627 19.1388 18.9177 17.3333 18.917H15.3291C15.1666 18.917 15.054 18.9621 14.9911 19.0524C14.9283 19.1427 14.8965 19.242 14.8958 19.3503C14.8958 19.567 15.0312 19.8786 15.302 20.2852C15.5729 20.6919 15.7083 21.1566 15.7083 21.6795C15.7083 22.5823 15.4602 23.2503 14.964 23.6837C14.4679 24.117 13.8132 24.3337 13 24.3337ZM7.04163 14.5837C7.51107 14.5837 7.89926 14.4302 8.20621 14.1232C8.51315 13.8163 8.66663 13.4281 8.66663 12.9587C8.66663 12.4892 8.51315 12.101 8.20621 11.7941C7.89926 11.4871 7.51107 11.3337 7.04163 11.3337C6.57218 11.3337 6.18399 11.4871 5.87704 11.7941C5.5701 12.101 5.41663 12.4892 5.41663 12.9587C5.41663 13.4281 5.5701 13.8163 5.87704 14.1232C6.18399 14.4302 6.57218 14.5837 7.04163 14.5837ZM10.2916 10.2503C10.7611 10.2503 11.1493 10.0969 11.4562 9.78991C11.7632 9.48296 11.9166 9.09477 11.9166 8.62533C11.9166 8.15588 11.7632 7.76769 11.4562 7.46074C11.1493 7.1538 10.7611 7.00033 10.2916 7.00033C9.82218 7.00033 9.43399 7.1538 9.12704 7.46074C8.8201 7.76769 8.66663 8.15588 8.66663 8.62533C8.66663 9.09477 8.8201 9.48296 9.12704 9.78991C9.43399 10.0969 9.82218 10.2503 10.2916 10.2503ZM15.7083 10.2503C16.1777 10.2503 16.5659 10.0969 16.8729 9.78991C17.1798 9.48296 17.3333 9.09477 17.3333 8.62533C17.3333 8.15588 17.1798 7.76769 16.8729 7.46074C16.5659 7.1538 16.1777 7.00033 15.7083 7.00033C15.2388 7.00033 14.8507 7.1538 14.5437 7.46074C14.2368 7.76769 14.0833 8.15588 14.0833 8.62533C14.0833 9.09477 14.2368 9.48296 14.5437 9.78991C14.8507 10.0969 15.2388 10.2503 15.7083 10.2503ZM18.9583 14.5837C19.4277 14.5837 19.8159 14.4302 20.1229 14.1232C20.4298 13.8163 20.5833 13.4281 20.5833 12.9587C20.5833 12.4892 20.4298 12.101 20.1229 11.7941C19.8159 11.4871 19.4277 11.3337 18.9583 11.3337C18.4888 11.3337 18.1007 11.4871 17.7937 11.7941C17.4868 12.101 17.3333 12.4892 17.3333 12.9587C17.3333 13.4281 17.4868 13.8163 17.7937 14.1232C18.1007 14.4302 18.4888 14.5837 18.9583 14.5837ZM13 22.167C13.1625 22.167 13.2935 22.1219 13.3932 22.0316C13.4929 21.9413 13.5423 21.8239 13.5416 21.6795C13.5416 21.4267 13.4062 21.1288 13.1354 20.7857C12.8645 20.4427 12.7291 19.9281 12.7291 19.242C12.7291 18.4837 12.9909 17.8788 13.5145 17.4274C14.0382 16.976 14.6791 16.7503 15.4375 16.7503H17.3333C18.525 16.7503 19.5451 16.4029 20.3937 15.7082C21.2423 15.0134 21.6666 13.9344 21.6666 12.4712C21.6666 10.2864 20.8317 8.46716 19.162 7.01333C17.4922 5.55949 15.5104 4.83294 13.2166 4.83366C10.7611 4.83366 8.66663 5.67324 6.93329 7.35241C5.19996 9.03157 4.33329 11.0809 4.33329 13.5003C4.33329 15.9017 5.17757 17.9467 6.86613 19.6352C8.55468 21.3238 10.5993 22.1677 13 22.167Z" fill="currentColor"/>
</svg>
