<svg width="27" height="27" viewBox="0 0 27 27" fill="none" xmlns="http://www.w3.org/2000/svg">
<path d="M9.16634 5.91699H6.99967C6.42504 5.91699 5.87394 6.14527 5.46761 6.55159C5.06128 6.95792 4.83301 7.50902 4.83301 8.08366V21.0837C4.83301 21.6583 5.06128 22.2094 5.46761 22.6157C5.87394 23.0221 6.42504 23.2503 6.99967 23.2503H13.1714M19.9997 15.667V20.0003H24.333M19.9997 12.417V8.08366C19.9997 7.50902 19.7714 6.95792 19.3651 6.55159C18.9587 6.14527 18.4076 5.91699 17.833 5.91699H15.6663" stroke="currentColor" stroke-width="2" stroke-linecap="round" stroke-linejoin="round"/>
<path d="M9.16602 12.4167H13.4993M9.16602 16.75H12.416M9.16602 5.91667C9.16602 5.34203 9.39429 4.79093 9.80062 4.3846C10.2069 3.97827 10.758 3.75 11.3327 3.75H13.4993C14.074 3.75 14.6251 3.97827 15.0314 4.3846C15.4377 4.79093 15.666 5.34203 15.666 5.91667C15.666 6.4913 15.4377 7.0424 15.0314 7.44873C14.6251 7.85506 14.074 8.08333 13.4993 8.08333H11.3327C10.758 8.08333 10.2069 7.85506 9.80062 7.44873C9.39429 7.0424 9.16602 6.4913 9.16602 5.91667ZM15.666 20C15.666 21.1493 16.1226 22.2515 16.9352 23.0641C17.7479 23.8768 18.8501 24.3333 19.9993 24.3333C21.1486 24.3333 22.2508 23.8768 23.0635 23.0641C23.8761 22.2515 24.3327 21.1493 24.3327 20C24.3327 18.8507 23.8761 17.7485 23.0635 16.9359C22.2508 16.1232 21.1486 15.6667 19.9993 15.6667C18.8501 15.6667 17.7479 16.1232 16.9352 16.9359C16.1226 17.7485 15.666 18.8507 15.666 20Z" stroke="currentColor" stroke-width="2" stroke-linecap="round" stroke-linejoin="round"/>
</svg>
